<?xml version="1.0" ?><!DOCTYPE svg  PUBLIC '-//W3C//DTD SVG 1.1//EN'  'http://www.w3.org/Graphics/SVG/1.1/DTD/svg11.dtd'><svg enable-background="new 0 0 64 64" id="Layer_1" version="1.1" viewBox="0 0 64 64" xml:space="preserve" xmlns="http://www.w3.org/2000/svg" xmlns:xlink="http://www.w3.org/1999/xlink"><g><g><polygon fill="#2EA2DB" points="12.5,44.6 20.5,36.6 9.3,25.4 1.3,33.4   "/><path d="M12.5,46L-0.1,33.4L9.3,24l12.6,12.6L12.5,46z M2.7,33.4l9.8,9.8l6.6-6.6l-9.8-9.7L2.7,33.4z" fill="#193651"/><path d="M17.2,34.7l-6-5.9l4-4l6,5.9L17.2,34.7z M14,28.7l3.1,3.1l1.2-1.2l-3.1-3.1L14,28.7z" fill="#193651"/><polyline fill="#FDBF5E" points="63.1,63.5 63.1,41.9 47.6,41.9 47.6,48.7 32.1,48.7 32.1,55 16.6,55 16.6,58.6 1.1,58.6     1.1,63.5   "/><polygon fill="#193651" points="64.1,63.5 62.1,63.5 62.1,42.9 48.6,42.9 48.6,49.7 33.1,49.7 33.1,56 17.6,56 17.6,59.6     2.1,59.6 2.1,63.5 0.1,63.5 0.1,57.6 15.6,57.6 15.6,54 31.1,54 31.1,47.7 46.6,47.7 46.6,40.9 64.1,40.9   "/><line fill="#FFFFFF" x1="45.7" x2="45.7" y1="57.5" y2="59.5"/><rect fill="#193651" height="2" width="2" x="44.7" y="57.5"/><line fill="#FFFFFF" x1="39.5" x2="39.5" y1="57.5" y2="59.5"/><rect fill="#193651" height="2" width="2" x="38.5" y="57.5"/><line fill="#FFFFFF" x1="51.9" x2="51.9" y1="57.5" y2="59.5"/><rect fill="#193651" height="2" width="2" x="50.9" y="57.5"/><line fill="#FFFFFF" x1="58.1" x2="58.1" y1="57.5" y2="59.5"/><rect fill="#193651" height="2" width="2" x="57.1" y="57.5"/><path d="M52.9,19.4c-0.5-1-1.8-1.4-2.8-1.1L44,20l-3.4-4.8l-4.7-2.7c-2.2-1.2-4.8-1.2-7,0l-5.5,3.1    c-0.3,0.2-0.5,0.4-0.7,0.7l-3.6,6c-0.6,1.1-0.4,2.5,0.7,3.2c1,0.6,2.3,0.3,3-0.6l3-4c0.9-1.2,2.2-2.1,3.7-2.5l0,0l-1.9,9.2    l-1.1,5.4l-1.1,4.7l-7.5,8.7c-1,1.1-1.1,2.8-0.2,4c1.2,1.5,3.4,1.5,4.6,0.1l8.6-10l1.4-4.8c0.3-1.1,1.3-1.9,2.5-1.7    c1.3,0.2,2.2,1.4,2,2.6l-0.9,5.2c-0.3,1.6,0.7,3.2,2.2,3.6c1.7,0.4,3.3-0.7,3.6-2.4l1.3-6.8l0,0c0.8-3.2-1-6.5-4.1-7.7l-1.1-0.4    l1.4-6.6l2.8,3.9l9.4-2.6C52.9,22.5,53.7,20.8,52.9,19.4z" fill="#FFFFFF"/><path d="M20,52.6c-1.2,0-2.3-0.5-3.1-1.5c-1.2-1.5-1.1-3.7,0.2-5.2l7.3-8.5l1-4.5L28,20.2    c-0.6,0.4-1.1,0.9-1.5,1.4l-3,4c-1,1.3-2.9,1.6-4.3,0.8c-0.7-0.4-1.2-1.1-1.4-2c-0.2-0.9-0.1-1.8,0.4-2.6l3.6-6    c0.3-0.4,0.6-0.8,1.1-1l5.5-3.1c2.4-1.4,5.6-1.4,8,0l4.9,2.8l3.2,4.4l5.4-1.5c1.5-0.4,3.2,0.2,4,1.5c0.5,0.9,0.6,2,0.2,3    c-0.4,1-1.2,1.7-2.2,2l-10.1,2.8L39.7,24l-0.8,3.6l0.3,0.1c3.6,1.3,5.6,5.1,4.7,8.8l-1.3,6.8c-0.4,1.9-2,3.2-3.9,3.2    c-0.3,0-0.6,0-0.9-0.1c-2.1-0.5-3.4-2.6-3-4.7l0.9-5.2c0.1-0.3,0-0.7-0.2-1c-0.2-0.3-0.5-0.5-0.9-0.5c-0.6-0.1-1.2,0.4-1.4,1    l-1.5,5l-8.7,10.1C22.3,52.1,21.2,52.6,20,52.6z M30.7,17.1l-3.3,16.2l-1.2,5l-7.6,8.9c-0.7,0.8-0.7,1.9-0.1,2.7    c0.8,0.9,2.3,1,3.1,0.1l8.4-9.8l1.3-4.6c0.5-1.6,2-2.6,3.5-2.5c0.9,0.1,1.7,0.6,2.2,1.3c0.5,0.7,0.8,1.6,0.6,2.5L36.8,42    c-0.2,1.1,0.5,2.2,1.5,2.4c1.1,0.3,2.2-0.5,2.4-1.6l1.3-6.8c0.7-2.8-0.8-5.6-3.5-6.6l-1.9-0.7l2.1-9.6l3.7,5.1l8.8-2.4    c0.4-0.1,0.8-0.4,0.9-0.8c0.2-0.4,0.1-0.9-0.1-1.3c-0.3-0.5-1-0.8-1.7-0.6l-6.7,1.9L39.9,16l-4.5-2.5c-1.8-1-4.2-1-6,0l-5.5,3.1    c-0.1,0.1-0.3,0.2-0.3,0.3l-3.6,6c-0.2,0.3-0.2,0.7-0.2,1.1c0.1,0.3,0.3,0.6,0.5,0.7c0.6,0.3,1.3,0.2,1.6-0.3l3-4    c1.1-1.4,2.6-2.4,4.2-2.9L30.7,17.1z" fill="#193651"/><circle cx="40.5" cy="6.1" fill="#FFFFFF" r="4.6"/><path d="M40.5,11.7c-3.1,0-5.6-2.5-5.6-5.6c0-3.1,2.5-5.6,5.6-5.6c3.1,0,5.6,2.5,5.6,5.6    C46.1,9.2,43.6,11.7,40.5,11.7z M40.5,2.5c-2,0-3.6,1.6-3.6,3.6s1.6,3.6,3.6,3.6c2,0,3.6-1.6,3.6-3.6S42.5,2.5,40.5,2.5z" fill="#193651"/><polygon fill="#2EA2DB" points="12.5,44.6 20.5,36.6 9.3,25.4 1.3,33.4   "/><path d="M18.6,33.3l2.6-2.6l-6-5.9l-2.6,2.6L9.3,24l-9.4,9.4L12.5,46l9.4-9.4L18.6,33.3z M15.2,27.6l3.1,3.1    l-1.2,1.2L14,28.7L15.2,27.6z M12.5,43.2l-9.8-9.8l6.6-6.6l9.8,9.7L12.5,43.2z" fill="#193651"/><polyline fill="#FDBF5E" points="63.1,63.5 63.1,41.9 47.6,41.9 47.6,48.7 32.1,48.7 32.1,55 16.6,55 16.6,58.6 1.1,58.6     1.1,63.5   "/><polygon fill="#193651" points="64.1,63.5 62.1,63.5 62.1,42.9 48.6,42.9 48.6,49.7 33.1,49.7 33.1,56 17.6,56 17.6,59.6     2.1,59.6 2.1,63.5 0.1,63.5 0.1,57.6 15.6,57.6 15.6,54 31.1,54 31.1,47.7 46.6,47.7 46.6,40.9 64.1,40.9   "/><line fill="#FFFFFF" x1="45.7" x2="45.7" y1="57.5" y2="59.5"/><rect fill="#193651" height="2" width="2" x="44.7" y="57.5"/><line fill="#FFFFFF" x1="39.5" x2="39.5" y1="57.5" y2="59.5"/><rect fill="#193651" height="2" width="2" x="38.5" y="57.5"/><line fill="#FFFFFF" x1="51.9" x2="51.9" y1="57.5" y2="59.5"/><rect fill="#193651" height="2" width="2" x="50.9" y="57.5"/><line fill="#FFFFFF" x1="58.1" x2="58.1" y1="57.5" y2="59.5"/><rect fill="#193651" height="2" width="2" x="57.1" y="57.5"/><path d="M52.9,19.4c-0.5-1-1.8-1.4-2.8-1.1L44,20l-3.4-4.8l-4.7-2.7c-2.2-1.2-4.8-1.2-7,0l-5.5,3.1    c-0.3,0.2-0.5,0.4-0.7,0.7l-3.6,6c-0.6,1.1-0.4,2.5,0.7,3.2c1,0.6,2.3,0.3,3-0.6l3-4c0.9-1.2,2.2-2.1,3.7-2.5l0,0l-1.9,9.2    l-1.1,5.4l-1.1,4.7l-7.5,8.7c-1,1.1-1.1,2.8-0.2,4c1.2,1.5,3.4,1.5,4.6,0.1l8.6-10l1.4-4.8c0.3-1.1,1.3-1.9,2.5-1.7    c1.3,0.2,2.2,1.4,2,2.6l-0.9,5.2c-0.3,1.6,0.7,3.2,2.2,3.6c1.7,0.4,3.3-0.7,3.6-2.4l1.3-6.8l0,0c0.8-3.2-1-6.5-4.1-7.7l-1.1-0.4    l1.4-6.6l2.8,3.9l9.4-2.6C52.9,22.5,53.7,20.8,52.9,19.4z" fill="#FFFFFF"/><path d="M53.8,18.9c-0.7-1.3-2.5-2-4-1.5l-5.4,1.5l-3.2-4.4l-4.9-2.8c-2.4-1.4-5.6-1.4-8,0l-5.5,3.1    c-0.4,0.2-0.8,0.6-1.1,1l-3.6,6c-0.5,0.8-0.6,1.7-0.4,2.6c0.2,0.8,0.7,1.5,1.4,2c1.4,0.8,3.3,0.4,4.3-0.8l3-4    c0.4-0.6,0.9-1,1.5-1.4l-2.6,12.7l-1,4.5l-7.3,8.5c-1.3,1.5-1.4,3.8-0.2,5.2c0.8,0.9,1.9,1.5,3.1,1.5c1.2,0,2.3-0.5,3-1.4    l8.7-10.1l1.5-5c0.2-0.6,0.8-1.1,1.4-1c0.4,0,0.7,0.2,0.9,0.5c0.2,0.3,0.3,0.6,0.2,1l-0.9,5.2c-0.4,2.2,0.9,4.3,3,4.7    c0.3,0.1,0.6,0.1,0.9,0.1c1.9,0,3.6-1.4,3.9-3.2l1.3-6.8c1.1-7.2-5.1-9-5.1-9l0.8-3.6l1.9,2.6l10.1-2.8c1-0.3,1.8-1,2.2-2    C54.4,20.9,54.3,19.8,53.8,18.9z M51.2,21.9l-8.8,2.4l-3.7-5.1l-2.1,9.6l1.9,0.7c2.6,1,4.1,3.8,3.5,6.6l-1.3,6.8    c-0.2,1.1-1.3,1.8-2.4,1.6c-1-0.2-1.7-1.3-1.5-2.4l0.9-5.2c0.2-0.9-0.1-1.8-0.6-2.5c-0.5-0.7-1.3-1.2-2.2-1.3    c-1.6-0.2-3.1,0.9-3.5,2.5L30,40.1l-8.4,9.8c-0.8,0.9-2.3,0.9-3.1-0.1c-0.6-0.7-0.5-1.9,0.1-2.7l7.6-8.9l1.2-5l3.3-16.2l-1.6,0.4    C27.5,18,26,19,24.9,20.4l-3,4c-0.4,0.5-1.1,0.6-1.6,0.3c-0.2-0.1-0.8-0.8-0.4-1.8l3.6-6c0.1-0.1,0.2-0.3,0.3-0.3l5.5-3.1    c1.8-1,4.2-1,6,0l4.5,2.5l3.7,5.2l6.7-1.9c0.7-0.2,1.4,0.1,1.7,0.6C52.4,20.8,52.2,21.5,51.2,21.9z" fill="#193651"/><circle cx="40.5" cy="6.1" fill="#FFFFFF" r="4.6"/><path d="M40.5,11.7c-3.1,0-5.6-2.5-5.6-5.6c0-3.1,2.5-5.6,5.6-5.6c3.1,0,5.6,2.5,5.6,5.6    C46.1,9.2,43.6,11.7,40.5,11.7z M40.5,2.5c-2,0-3.6,1.6-3.6,3.6s1.6,3.6,3.6,3.6c2,0,3.6-1.6,3.6-3.6S42.5,2.5,40.5,2.5z" fill="#193651"/></g></g></svg>