<?xml version="1.0" ?><svg id="Layer_1" style="enable-background:new 0 0 249.24 241.928;" version="1.1" viewBox="0 0 249.24 241.928" xml:space="preserve" xmlns="http://www.w3.org/2000/svg" xmlns:xlink="http://www.w3.org/1999/xlink"><g><ellipse cx="100.869" cy="22.498" rx="22.493" ry="22.496" transform="matrix(0.2268 -0.9739 0.9739 0.2268 56.0793 115.6355)"/><path d="M34.521,241.192c1.393,0.499,2.816,0.736,4.215,0.736c5.13,0,9.938-3.183,11.768-8.288l32.859-91.727l35.539,3.331   l21.662,40.27c2.256,4.195,6.566,6.581,11.018,6.581c2,0,4.027-0.48,5.91-1.494c6.081-3.269,8.359-10.852,5.09-16.93   l-24.836-46.169c-1.979-3.682-5.68-6.134-9.84-6.523l-39.381-3.693c-0.824-13.156,1.861-27.456,4.238-39.214l-14.379-2.763   c-2.678-0.513-4.993-2.038-6.523-4.294c-1.527-2.254-2.086-4.972-1.572-7.648c0.92-4.795,5.129-8.275,10.005-8.275   c0.646,0,1.298,0.062,1.938,0.186l12.177,2.338c-1.428-5.365-4.729-9.728-9.574-10.935c-3.053-0.762-6.598-0.651-10.121,0.466   c-3.625-7.006-26.19-46.826-56.984-17.555c-15.999,15.206-1.577,30.754,3.09,30.754s-32,12.667-17.333,48   c14.667,35.336,44.576,30.91,48.576,22.246c0.538-1.167,1.355-3.522,2.358-6.711c1.388,3.948,3.384,6.734,5.736,8.686   L26.969,225.21C24.641,231.708,28.023,238.864,34.521,241.192z M32.818,47.897c0-4.64,3.76-8.4,8.4-8.4s8.4,3.761,8.4,8.4   c0,4.641-3.76,8.401-8.4,8.401S32.818,52.538,32.818,47.897z M23.484,43.811c0-7.993,6.477-14.465,14.467-14.465   c5.903,0,10.973,3.537,13.223,8.606l-1.336,1.351c-2.209-3.127-5.843-5.177-9.961-5.177c-6.734,0-12.192,5.464-12.192,12.192   c0,4.17,2.093,7.844,5.282,10.042L32.235,57.1C27.089,54.884,23.484,49.772,23.484,43.811z"/><polygon points="232.573,194.924 194.572,159.925 186.906,163.591 184.573,178.924 164.573,192.924 122.573,210.924    95.573,239.924 249.24,239.924  "/><path d="M188.487,43.155c1.105,0,2-0.896,2-2v-15.25c0-1.104-0.895-2-2-2h-7.208v19.25H188.487z"/><path d="M144.294,35.217c4.276,3.158,5.368,9.045,2.657,13.5h0.286c1.105,0,2-0.896,2-2V39.28h4.25v1.875c0,1.104,0.896,2,2,2   h23.542v-19.25h-23.542c-1.104,0-2,0.896-2,2v1.875h-4.25v-7.438c0-1.104-0.895-2-2-2h-11.25c-1.104,0-2,0.896-2,2v13.834   c1.323-0.609,2.771-0.951,4.258-0.951C140.435,33.225,142.528,33.914,144.294,35.217z M136.362,21.05h10.375v1.875h-10.375V21.05z"/><path d="M72.449,63.783c-0.834,4.339,2.008,8.532,6.349,9.366v-0.002l36.597,7.032c0.505,0.097,1.012,0.144,1.514,0.144   c2.51,0,4.904-1.182,6.433-3.249l21.333-28.899c2.623-3.553,1.869-8.562-1.686-11.187c-3.555-2.624-8.564-1.868-11.188,1.688   l-18.34,24.838l-31.644-6.078C77.475,56.601,73.283,59.443,72.449,63.783z"/><path d="M183.495,98.837c5.078-4.442,13.289-0.765,16.23,0.98c1.729-2.951,7.136-10.141,13.729-8.711   c-7.019-7.9-14.904,4.16-14.904,4.16S185.815,88.527,183.495,98.837z"/><path d="M213.829,111.881c5.078-4.445,13.288-0.766,16.23,0.981c1.729-2.952,7.136-10.143,13.729-8.712   c-7.018-7.9-14.903,4.159-14.903,4.159S216.147,101.571,213.829,111.881z"/><path d="M234.912,77.978c1.727-2.952,7.134-10.144,13.729-8.711c-7.019-7.902-14.904,4.158-14.904,4.158   s-12.736-6.738-15.055,3.571C223.761,72.553,231.97,76.231,234.912,77.978z"/></g></svg>