<?xml version="1.0" ?><svg id="Layer_1" style="enable-background:new 0 0 426.917 500.936;" version="1.1" viewBox="0 0 426.917 500.936" xml:space="preserve" xmlns="http://www.w3.org/2000/svg" xmlns:xlink="http://www.w3.org/1999/xlink"><g><path d="M25.858,361.93c4.523-1.693,8.286-0.261,10.004,0.645c-1.552,0.582-2.907,1.542-3.857,2.928   c-2.91,4.24-1.066,10.564,4.117,14.121c5.184,3.559,11.745,3.006,14.657-1.232c0.641-0.932,1.035-1.969,1.229-3.049   c1.013-0.412,1.938-1.014,2.716-1.83c3.539-3.725,2.747-10.303-1.765-14.691c-4.512-4.389-11.037-4.924-14.574-1.201   c-0.9,0.948-1.505,2.088-1.852,3.325c-3.584-2.182-9.493-2.198-9.493-2.198S25.788,360.795,25.858,361.93z"/><path d="M35.828,359.094c0.06-2.902,1.475-1.633,3.951-6.443c2.475-4.813-3.659-8.113-3.659-8.113s0.242,2.766-2.076,5.92   C31.725,353.61,35.828,359.094,35.828,359.094z"/><path d="M135.885,425.198c-2.623-15.262-14.094-21.822-22.861-21.092c-0.621,0.052-1.225,0.161-1.812,0.313   c-0.006,0.007-0.011,0.014-0.017,0.021c-2.192,2.513-4.818,4.509-7.729,5.925c-2.221,3.338-3.565,7.651-3.74,12.065l6.86-7.511   c1.887-2.069,4.579-3.255,7.383-3.255c2.499,0,4.895,0.93,6.742,2.616c1.972,1.801,3.125,4.261,3.246,6.93   c0.122,2.666-0.803,5.222-2.605,7.196l-20.921,22.905c-0.091,4.351-0.346,8.766-0.868,13.103l-17.783-9.089l-24.495-5.576   c-1.041-0.236-2.004-0.632-2.877-1.149L6.733,473.411c-6.125,3.188-8.506,10.736-5.318,16.86c2.227,4.279,6.586,6.731,11.099,6.731   c1.944,0,3.916-0.454,5.76-1.413l43.28-22.525l37.173,18.998c0.645,0.451,1.39,0.821,2.238,1.135   c1.691,0.837,3.482,1.249,5.256,1.287c0.168,0.03,0.334,0.06,0.506,0.091c9.026,1.586,20.185,1.727,25.856-13.666   C138.7,459.397,139.362,446.202,135.885,425.198z"/><path d="M59.493,429.998c0.554,0,1.107,0.063,1.657,0.154l-18.037-14.974l-6.174,7.436l14.246,11.828   C52.991,431.719,56.054,429.998,59.493,429.998z"/><path d="M57.727,447.8l31.226,7.107c0.592,0.135,1.188,0.2,1.78,0.2c2.22,0,4.367-0.926,5.902-2.606l23.239-25.443   c2.979-3.264,2.751-8.322-0.512-11.301c-3.263-2.979-8.322-2.751-11.301,0.512l-20.099,22.003L61.279,432.2   c-4.309-0.983-8.596,1.716-9.576,6.024C50.722,442.533,53.418,446.82,57.727,447.8z"/><path d="M58.034,352.641l2.938,2.717c3.982-4.282,8.551-5.607,13.119-5.629c4.21-0.007,8.341,1.227,11.391,2.485   c1.524,0.626,2.777,1.255,3.642,1.722c0.431,0.232,0.766,0.425,0.986,0.558c0.223,0.131,0.313,0.189,0.313,0.189l3.079,1.978   v-66.661h-4v59.635c-3.343-1.637-9.061-3.88-15.411-3.907C68.732,345.706,62.812,347.451,58.034,352.641z"/><path d="M153.873,378.459c3.05-3.398,2.767-8.627-0.633-11.678c-3.398-3.049-8.626-2.767-11.676,0.631   c-3.051,3.398-2.769,8.627,0.629,11.676C145.592,382.139,150.82,381.858,153.873,378.459z M142.418,369.674   c1.994-2.221,5.412-2.404,7.634-0.412c2.222,1.994,2.408,5.414,0.412,7.635c-1.994,2.223-5.412,2.408-7.634,0.414   C140.607,375.315,140.422,371.897,142.418,369.674z"/><path d="M133.339,377.401c2.057-3.076,1.23-7.238-1.849-9.299c-3.077-2.057-7.239-1.23-9.298,1.846   c-2.06,3.078-1.233,7.242,1.846,9.301C127.115,381.305,131.28,380.479,133.339,377.401z M123.137,371.666   c1.345-2.012,4.067-2.553,6.081-1.207c2.011,1.346,2.551,4.068,1.206,6.08c-1.347,2.012-4.067,2.553-6.081,1.207   C122.331,376.401,121.791,373.678,123.137,371.666z"/><ellipse cx="92.745" cy="388.332" rx="22.495" ry="22.493" transform="matrix(0.9977 -0.0676 0.0676 0.9977 -26.0369 7.1572)"/><path d="M398.183,171.019c2.391-5.106,3.733-10.801,3.733-16.812c0-21.93-17.777-39.707-39.706-39.707   c-0.182,0-0.36,0.012-0.541,0.014c-3.806-11.79-12.602-21.337-23.908-26.139c-1.823-25.105-21.386-45.28-46.218-48.043   C286.166,17.223,265.456,0,240.71,0c-24.793,0-45.534,17.289-50.864,40.464c-17.841,2.345-32.845,13.685-40.294,29.329   C144.266,67.992,138.606,67,132.71,67c-28.833,0-52.207,23.373-52.207,52.207c0,4.783,0.656,9.41,1.86,13.811   c-17.651,8.374-29.86,26.354-29.86,47.189c0,0.157,0.011,0.313,0.012,0.47c-23.828,3.914-42.012,24.594-42.012,49.53   c0,27.727,22.478,50.205,50.207,50.205c14.616,0,27.77-6.251,36.944-16.219c8.613,10.874,21.924,17.859,36.875,17.859   c0.995,0,1.98-0.041,2.959-0.103c7.322-18.171,25.125-31.036,45.887-31.036c10.239,0,19.761,3.128,27.661,8.477   c0.216-0.003,0.43-0.013,0.645-0.017c0.017,0.17,0.033,0.341,0.05,0.512c12.748,8.955,21.104,23.759,21.104,40.486   c0,14.61-6.371,27.756-16.477,36.818c0.353,12.962,0.547,26.716,0.544,41.337c0,22.227-0.447,46.428-1.445,72.725   c-3.087,10.387-7.198,20.259-12.662,28.464c-3.493,0.477-6.959,1.04-10.565,1.691c-21.73,3.924-33.822,4.74-54.648,11.564   c-2.114,6.447,21.624,7.963,87.045,7.963c26.428,0,102.887-0.568,102.531-5.117c-0.286-3.655-34.057-12.96-69.87-16.488   c-6.369-9.61-10.692-21.509-13.602-33.836c0.837-24.017,1.218-46.309,1.218-66.966c-0.004-18.186-0.301-35.099-0.831-50.848   c0.165-0.163,0.407-0.402,0.732-0.723c4.989-4.913,28.266-27.456,55.629-48.565c8.177-6.313,16.725-12.489,25.216-18.024   c10.647,11.699,25.996,19.044,43.062,19.044c32.146,0,58.205-26.061,58.205-58.205   C426.917,199.819,415.373,181.136,398.183,171.019z M239.272,253.923c7.548-2.958,14.534-7.028,20.757-12.019   c2.77,2.227,5.773,4.174,8.965,5.806c-8.904,9.582-18.32,21.723-27.113,36.873C241.12,273.65,240.241,263.442,239.272,253.923z    M264.492,287.172c-4.09,3.537-7.902,6.919-11.37,10.049c10.719-19.594,22.582-33.967,33.049-44.23   c2.143,0.268,4.323,0.422,6.54,0.422c7.605,0,14.823-1.64,21.34-4.564C296.127,260.795,278.684,274.911,264.492,287.172z"/><path d="M225.392,300.373c0-23.205-18.814-42.016-42.017-42.016c-23.206,0-42.017,18.811-42.017,42.016   c0,23.203,18.811,42.018,42.017,42.018C206.579,342.391,225.392,323.577,225.392,300.373z M184.722,337.002   c-19.337,0-35.016-15.676-35.016-35.014c0-19.338,15.679-35.014,35.016-35.014c19.337,0,35.016,15.676,35.016,35.014   C219.738,321.327,204.059,337.002,184.722,337.002z"/><path d="M201.947,295.877c0-9.934-8.053-17.986-17.985-17.986c-9.933,0-17.985,8.053-17.985,17.986   c0,5.453,2.438,10.33,6.27,13.629c2.403,3.313,5.203,8.133,5.203,12.625c0,7.855,13.021,7.855,13.021,0   c0-4.492,2.803-9.313,5.204-12.625C199.509,306.207,201.947,301.331,201.947,295.877z M193.246,306.684l-0.33,0.283l-0.257,0.355   c-1.343,1.855-2.442,3.654-3.329,5.402h-10.734c-0.889-1.75-1.989-3.551-3.335-5.406l-0.255-0.352l-0.329-0.283   c-3.164-2.719-4.979-6.658-4.979-10.807c0-7.867,6.397-14.266,14.264-14.266c7.864,0,14.265,6.398,14.265,14.266   C198.226,300.026,196.409,303.965,193.246,306.684z"/><path d="M184.227,287.317c0.552,0,1.001-0.449,1.001-1.001c0-0.554-0.449-1.001-1.001-1.001c-5.734,0-10.379,4.647-10.379,10.38   c0,0.552,0.446,1.001,1,1.001c0.552,0,0.999-0.449,0.999-1.001C175.856,291.068,179.598,287.324,184.227,287.317z"/><path d="M162.399,345.152c-5.746,0.218-10.341,4.931-10.341,10.729c0,5.938,4.814,10.75,10.751,10.75   c5.935,0,10.749-4.813,10.749-10.75c0-3.11-1.328-5.903-3.439-7.866c-1.919-1.784-4.483-2.884-7.309-2.884   C162.67,345.131,162.536,345.147,162.399,345.152z M161.879,364.358c-3.884,0-7.03-3.146-7.03-7.031   c0-3.881,3.146-7.027,7.03-7.027c3.881,0,7.027,3.147,7.027,7.027C168.907,361.211,165.76,364.358,161.879,364.358z"/></g></svg>