<?xml version="1.0" ?><!DOCTYPE svg  PUBLIC '-//W3C//DTD SVG 1.1//EN'  'http://www.w3.org/Graphics/SVG/1.1/DTD/svg11.dtd'><svg enable-background="new 0 0 80 80" height="80px" id="Layer_1" version="1.1" viewBox="0 0 80 80" width="80px" xml:space="preserve" xmlns="http://www.w3.org/2000/svg" xmlns:xlink="http://www.w3.org/1999/xlink"><g><path d="M68.819,6.937c-8.203-8.2-21.497-8.199-29.699,0.001L15.786,30.271c-1.172,1.172-1.171,3.071,0,4.242   c1.172,1.172,3.071,1.173,4.243,0.001l23.333-23.334c5.848-5.848,15.366-5.848,21.214,0s5.848,15.366,0,21.213L26.393,70.578   c-3.508,3.507-9.221,3.507-12.729,0c-3.506-3.508-3.506-9.221,0.001-12.729l38.185-38.184c1.166-1.167,3.075-1.167,4.242-0.001   c1.167,1.168,1.167,3.077,0,4.243L22.151,57.85c-1.172,1.171-1.172,3.07-0.001,4.241c1.172,1.172,3.071,1.172,4.242,0l33.94-33.939   c3.508-3.507,3.508-9.221,0-12.728c-3.507-3.508-9.221-3.508-12.728,0L9.422,53.607c-5.855,5.854-5.855,15.357,0,21.212   c5.854,5.857,15.358,5.856,21.213,0l38.185-38.183C77.021,28.435,77.021,15.141,68.819,6.937z" fill="#333F4F"/></g></svg>