<?xml version="1.0" ?><!DOCTYPE svg  PUBLIC '-//W3C//DTD SVG 1.1//EN'  'http://www.w3.org/Graphics/SVG/1.1/DTD/svg11.dtd'><svg enable-background="new 0 0 128 128" id="Слой_1" version="1.1" viewBox="0 0 128 128" xml:space="preserve" xmlns="http://www.w3.org/2000/svg" xmlns:xlink="http://www.w3.org/1999/xlink"><g><circle cx="84.2" cy="29.8" fill="#43ACB7" r="7.5"/><circle cx="40.4" cy="71.9" fill="#43ACB7" r="7.5"/><circle cx="90.9" cy="103.3" fill="#43ACB7" r="7.5"/><circle cx="83.3" cy="81.8" fill="#43ACB7" r="6"/><circle cx="15.4" cy="46.4" fill="#F0EF99" r="6"/><circle cx="109.2" cy="53.6" fill="#F0EF99" r="5"/><circle cx="83.3" cy="7.6" fill="#F0EF99" r="5"/><circle cx="121.5" cy="23" fill="#F0EF99" r="4"/><circle cx="52.8" cy="13.7" fill="#F0EF99" r="4"/><circle cx="6.5" cy="83.9" fill="#F0EF99" r="4"/><circle cx="39.6" cy="97.7" fill="#F0EF99" r="4"/><circle cx="75.7" cy="121.5" fill="#F0EF99" r="4"/><circle cx="117.5" cy="121.5" fill="#F0EF99" r="4"/><path d="M121.5,17.5c-2.9,0-5.2,2.2-5.5,5l-23.4,4.3c-1.1-3.1-3.9-5.4-7.3-5.9L85,13.8c2.7-0.8,4.7-3.3,4.7-6.2   c0-3.6-2.9-6.5-6.5-6.5S76.8,4,76.8,7.6c0,3.2,2.3,5.8,5.3,6.4l0.3,7c-2.2,0.5-4.1,1.7-5.4,3.4l-18.8-9.7c0.1-0.4,0.1-0.7,0.1-1.1   c0-3-2.5-5.5-5.5-5.5s-5.5,2.5-5.5,5.5s2.5,5.5,5.5,5.5c1.6,0,3-0.7,4-1.8L75.6,27c-0.3,0.9-0.4,1.8-0.4,2.7c0,1.9,0.6,3.6,1.6,5.1   l-31,29.8c-1.5-1.1-3.3-1.8-5.3-1.8c-1.9,0-3.7,0.6-5.1,1.6L21.6,50.6c0.8-1.2,1.3-2.6,1.3-4.2c0-4.1-3.4-7.5-7.5-7.5   s-7.5,3.4-7.5,7.5s3.4,7.5,7.5,7.5c1.5,0,2.9-0.4,4.1-1.2l13.7,13.9c-1.1,1.5-1.7,3.3-1.7,5.3c0,0.6,0.1,1.1,0.2,1.6l-20.5,7.4   c-1-1.5-2.7-2.5-4.6-2.5c-3,0-5.5,2.5-5.5,5.5s2.5,5.5,5.5,5.5S12,87,12,83.9c0-0.1,0-0.1,0-0.2l20.6-7.5c1.2,2.2,3.4,3.8,5.9,4.3   l-0.3,11.8c-2.3,0.6-4,2.8-4,5.3c0,3,2.5,5.5,5.5,5.5s5.5-2.5,5.5-5.5c0-2.5-1.7-4.6-4-5.3l0.3-11.7c3.3-0.4,6.1-2.5,7.3-5.5   l27.1,6.2c0,0.1,0,0.2,0,0.3c0,4.1,3.4,7.5,7.5,7.5c0.4,0,0.7,0,1.1-0.1l2.2,6.2c-2.8,1.5-4.6,4.5-4.6,7.9c0,2.2,0.8,4.3,2.2,5.8   l-6.2,7.4c-0.7-0.3-1.4-0.5-2.2-0.5c-3,0-5.5,2.5-5.5,5.5s2.5,5.5,5.5,5.5s5.5-2.5,5.5-5.5c0-1.1-0.4-2.2-1-3.1l6.2-7.4   c1.3,0.8,2.9,1.2,4.5,1.2c2.5,0,4.8-1,6.4-2.7l14.9,10.3c-0.2,0.5-0.3,1.1-0.3,1.6c0,3,2.5,5.5,5.5,5.5s5.5-2.5,5.5-5.5   s-2.5-5.5-5.5-5.5c-1.4,0-2.6,0.5-3.6,1.3l-14.8-10.3c0.5-1.2,0.9-2.5,0.9-3.8c0-5-4-9-9-9c-0.5,0-1,0.1-1.5,0.1l-2.2-6.2   c2.2-1.3,3.6-3.7,3.6-6.4c0-4.1-3.4-7.5-7.5-7.5c-3,0-5.6,1.8-6.8,4.3L49.6,72c0-0.2,0-0.3,0-0.5c0-1.9-0.6-3.6-1.6-5.1l30.9-29.7   c1.5,1.1,3.3,1.8,5.3,1.8s3.9-0.7,5.4-1.8l14,13.3c-0.6,1-0.9,2.1-0.9,3.3c0,3.6,2.9,6.5,6.5,6.5s6.5-2.9,6.5-6.5s-2.9-6.5-6.5-6.5   c-1.3,0-2.5,0.4-3.6,1.1l-14-13.3c1-1.4,1.5-3.2,1.5-5v-0.1l23.4-4.3c0.9,1.8,2.8,3.1,4.9,3.1c3,0,5.5-2.5,5.5-5.5   S124.5,17.5,121.5,17.5z M52.8,16.2c-1.4,0-2.5-1.1-2.5-2.5s1.1-2.5,2.5-2.5s2.5,1.1,2.5,2.5S54.1,16.2,52.8,16.2z M6.5,86.4   c-1.4,0-2.5-1.1-2.5-2.5s1.1-2.5,2.5-2.5S9,82.6,9,83.9S7.9,86.4,6.5,86.4z M117.5,119c1.4,0,2.5,1.1,2.5,2.5s-1.1,2.5-2.5,2.5   s-2.5-1.1-2.5-2.5S116.1,119,117.5,119z M75.7,124c-1.4,0-2.5-1.1-2.5-2.5s1.1-2.5,2.5-2.5s2.5,1.1,2.5,2.5S77,124,75.7,124z    M96.9,103.3c0,3.3-2.7,6-6,6s-6-2.7-6-6s2.7-6,6-6S96.9,99.9,96.9,103.3z M83.3,77.3c2.5,0,4.5,2,4.5,4.5s-2,4.5-4.5,4.5   s-4.5-2-4.5-4.5S80.8,77.3,83.3,77.3z M79.8,7.6c0-2.2,2-3.9,4.3-3.4c1.3,0.3,2.3,1.3,2.6,2.6c0.4,1.7-0.4,3.2-1.7,3.9l0,0   c-0.9,0.5-1.9,0.5-2.9,0.2H82C80.7,10.3,79.8,9.1,79.8,7.6z M10.9,46.4c0-2.5,2-4.5,4.5-4.5s4.5,2,4.5,4.5s-2,4.5-4.5,4.5   S10.9,48.9,10.9,46.4z M42.1,97.7c0,1.4-1.1,2.5-2.5,2.5s-2.5-1.1-2.5-2.5s1.1-2.5,2.5-2.5S42.1,96.4,42.1,97.7z M40.4,77.9   c-3.3,0-6-2.7-6-6s2.7-6,6-6s6,2.7,6,6S43.8,77.9,40.4,77.9z M78.2,29.8c0-3.3,2.7-6,6-6s6,2.7,6,6s-2.7,6-6,6S78.2,33.2,78.2,29.8   z M112.7,53.6c0,1.9-1.6,3.5-3.5,3.5s-3.5-1.6-3.5-3.5s1.6-3.5,3.5-3.5S112.7,51.7,112.7,53.6z M121.5,25.5c-1.4,0-2.5-1.1-2.5-2.5   s1.1-2.5,2.5-2.5s2.5,1.1,2.5,2.5S122.9,25.5,121.5,25.5z" fill="#454B54"/></g></svg>