<?xml version="1.0" ?><svg id="Layer_1" style="enable-background:new 0 0 24 24;" version="1.1" viewBox="0 0 24 24" xml:space="preserve" xmlns="http://www.w3.org/2000/svg" xmlns:xlink="http://www.w3.org/1999/xlink"><g><path d="M18.679,1.033C18.621,1.011,18.561,1,18.5,1c-0.11,0-0.219,0.036-0.309,0.107   c-0.018,0.014-1.862,1.449-3.342,1.917c-0.352,0.111-0.847,0.249-1.415,0.408C10.721,4.19,8.412,4.881,7.646,5.647   C6.793,6.5,6.232,9.865,6.051,11.104C3.193,11.561,1,14.015,1,17c0,3.309,2.691,6,6,6s6-2.67,6-5.979   c0-0.727-0.139-1.436-0.398-2.116c0.89-0.499,1.804-0.846,2.446-0.907c0.14-0.013,0.272-0.019,0.403-0.025   c0.722-0.034,1.469-0.068,2.843-1.068c0.738-0.537,1.163-1.237,1.613-1.979c0.617-1.02,1.257-2.073,2.844-2.993   C22.905,7.843,23,7.678,23,7.5C23,2.742,18.722,1.05,18.679,1.033z M9.864,11.515l0.99-2.095c0.27-0.077,0.721-0.211,1.072-0.346   c0.106,0.061,0.226,0.113,0.354,0.168c0.206,0.091,0.433,0.19,0.608,0.329C12.367,10.303,10.995,11.053,9.864,11.515z" style="fill:#303C42;"/><path d="M7,22.022c-2.757,0-5-2.243-5-5s2.243-5,5-5c0.545,0,1.083,0.098,1.596,0.271   c-0.399,0.312-0.796,0.685-1.121,1.084C7.419,13.161,7.232,13,7,13c-0.276,0-0.5,0.224-0.5,0.5v0.525   C5.654,14.148,5,14.871,5,15.75c0,0.965,0.785,1.75,1.75,1.75h0.5C7.663,17.5,8,17.836,8,18.25S7.663,19,7.25,19H5.5   C5.224,19,5,19.224,5,19.5S5.224,20,5.5,20h1v0.5C6.5,20.776,6.724,21,7,21s0.5-0.224,0.5-0.5v-0.525   C8.346,19.852,9,19.129,9,18.25c0-0.965-0.785-1.75-1.75-1.75h-0.5C6.337,16.5,6,16.164,6,15.75S6.337,15,6.75,15h0.023   c0.013,0.326,0.137,0.617,0.373,0.854c0.458,0.458,1.037,0.642,1.655,0.642c0.992,0,2.083-0.476,2.937-1.056   C11.911,15.951,12,16.481,12,17.022C12,19.778,9.757,22.022,7,22.022z" style="fill:#FFCA28;"/><path d="M2.5,17.5c0-2.757,2.243-5,5-5c0.262,0,0.521,0.025,0.778,0.068   c0.106-0.093,0.21-0.191,0.318-0.276C8.083,12.12,7.545,12.022,7,12.022c-2.757,0-5,2.243-5,5c0,1.532,0.707,2.888,1.796,3.806   C2.999,19.941,2.5,18.782,2.5,17.5z" style="opacity:0.2;fill:#FFFFFF;"/><path d="M19.052,10.407c-0.413,0.681-0.77,1.27-1.346,1.688c-1.132,0.823-1.648,0.847-2.302,0.877   c-0.146,0.007-0.295,0.014-0.452,0.029c-1.013,0.096-2.479,0.719-3.736,1.586C10.1,15.36,8.57,15.863,7.854,15.147   c-0.059-0.059-0.107-0.138-0.071-0.317c0.159-0.783,1.616-2.047,2.405-2.366c0.948-0.383,3.213-1.419,3.774-2.772   c0.063-0.154,0.047-0.33-0.046-0.469c-0.333-0.5-0.854-0.728-1.234-0.895c-0.116-0.051-0.27-0.11-0.271-0.112   c-0.142-0.206-0.415-0.273-0.635-0.163c-0.305,0.152-1.118,0.387-1.406,0.464c-0.142,0.038-0.26,0.137-0.322,0.27l-1.2,2.539   c-0.572-0.185-1.168-0.291-1.773-0.299C7.356,9.206,7.88,6.827,8.354,6.354c0.643-0.642,3.59-1.466,5.351-1.959   c0.58-0.163,1.087-0.304,1.446-0.418c1.328-0.419,2.834-1.471,3.414-1.899c0.799,0.394,3.294,1.883,3.43,5.143   C20.367,8.238,19.641,9.436,19.052,10.407z" style="fill:#FBBE9D;"/><linearGradient gradientUnits="userSpaceOnUse" id="SVGID_1_" x1="8.3979" x2="12.3796" y1="14.6021" y2="18.5838"><stop offset="0" style="stop-color:#000000;stop-opacity:0.15"/><stop offset="0.8562" style="stop-color:#000000;stop-opacity:0.0216"/><stop offset="1" style="stop-color:#000000;stop-opacity:0"/></linearGradient><path d="M12,17.022c0-0.54-0.089-1.07-0.262-1.582c-0.853,0.58-1.945,1.056-2.937,1.056   c-0.618,0-1.197-0.184-1.655-0.642l0.785,0.785c0.418,0.177,0.754,0.513,0.931,0.931l2.266,2.266   C11.677,19.033,12,18.065,12,17.022z" style="fill:url(#SVGID_1_);"/><linearGradient gradientUnits="userSpaceOnUse" id="SVGID_2_" x1="4.3991" x2="19.38" y1="8.3884" y2="15.3741"><stop offset="0" style="stop-color:#FFFFFF;stop-opacity:0.2"/><stop offset="1" style="stop-color:#FFFFFF;stop-opacity:0"/></linearGradient><path d="M18.679,1.033C18.621,1.011,18.561,1,18.5,1c-0.11,0-0.219,0.036-0.309,0.107   c-0.018,0.014-1.862,1.449-3.342,1.917c-0.352,0.111-0.847,0.249-1.415,0.408C10.721,4.19,8.412,4.881,7.646,5.647   C6.793,6.5,6.232,9.865,6.051,11.104C3.193,11.561,1,14.015,1,17c0,3.309,2.691,6,6,6s6-2.67,6-5.979   c0-0.727-0.139-1.436-0.398-2.116c0.89-0.499,1.804-0.846,2.446-0.907c0.14-0.013,0.272-0.019,0.403-0.025   c0.722-0.034,1.469-0.068,2.843-1.068c0.738-0.537,1.163-1.237,1.613-1.979c0.617-1.02,1.257-2.073,2.844-2.993   C22.905,7.843,23,7.678,23,7.5C23,2.742,18.722,1.05,18.679,1.033z M9.864,11.515l0.99-2.095c0.27-0.077,0.721-0.211,1.072-0.346   c0.106,0.061,0.226,0.113,0.354,0.168c0.206,0.091,0.433,0.19,0.608,0.329C12.367,10.303,10.995,11.053,9.864,11.515z" style="fill:url(#SVGID_2_);"/></g><g/><g/><g/><g/><g/><g/><g/><g/><g/><g/><g/><g/><g/><g/><g/></svg>