<?xml version="1.0" ?><svg height="16px" version="1.1" viewBox="0 0 24 16" width="24px" xmlns="http://www.w3.org/2000/svg" xmlns:sketch="http://www.bohemiancoding.com/sketch/ns" xmlns:xlink="http://www.w3.org/1999/xlink"><title/><desc/><defs><path d="M9,16 L4.50000001,16 L3.75000001,15.9367619 C1.6215,15.5740952 0,13.6937143 0,11.4285715 C0,9.63123813 1.02075,8.07619047 2.50575001,7.3295238 C2.34150001,6.95238094 2.25000001,6.53485713 2.25000001,6.09523813 C2.25000001,4.4121905 3.59325001,3.04761905 5.25000001,3.04761905 C6.13275,3.04761905 6.927,3.43542856 7.476,4.0518095 C8.63625,1.6518095 11.0655,0 13.875,0 C17.76975,0 20.9355,3.17485716 20.9985,7.1169524 C22.7475,7.744 24,9.43771427 24,11.4285715 C24,13.6937143 22.3785,15.5740952 20.25,15.9367619 L19.5,16 L15,15.9866429 L15,14.9891444 L19.4091499,14.9835052 L20.0706842,14.9835053 C21.5117239,14.7390134 22.942623,12.8795835 22.942623,11.3944656 C22.942623,10.1129647 22.1422112,8.96468544 20.9505536,8.5385277 L19.8929807,8.23747353 L19.8929804,7.14718683 C19.844448,4.07022224 17.3985994,0.992958255 13.8092547,0.992958255 C11.656655,0.992958255 9.74705681,2.22633719 8.61456029,4.02072158 L7.61461389,5.43843721 C7.61461389,5.43843721 6.651367,4.02072186 5.22274871,4.0207217 C3.97658546,4.02072157 3.18258105,5.2609738 3.18258105,6.09587959 C3.18258105,6.31009384 3.22514023,6.51598172 3.30951198,6.70900168 L3.67133118,7.71401772 C1.87362832,8.37351733 0.942622955,10.2340752 0.942622955,11.3944656 C0.942622955,12.8795835 2.53554565,14.6966246 3.97658534,14.9411165 L4.47609599,14.9835052 L9,14.9835052 L9,16 Z" id="path-1"/><path d="M11.5015626,13.9157762 L11.5015626,8 L12.5,8 L12.5,13.9142136 L14.1213203,12.2928932 L14.8284271,13 L12,15.8284271 L9.17157288,13 L9.87867966,12.2928932 L11.5015626,13.9157762 Z" id="path-2"/></defs><g fill="none" fill-rule="evenodd" id="Page-1" stroke="none" stroke-width="1"><g id="cloud_download_arrow"><g id="cloud_outline_stroke-2"><use fill="#363636" fill-rule="evenodd" xlink:href="#path-1"/><use fill="none" xlink:href="#path-1"/></g><g id="cloud_cloud-download_2_outline_stroke"><use fill="#6099CF" fill-rule="evenodd" xlink:href="#path-2"/><use fill="none" xlink:href="#path-2"/></g></g></g></svg>