<?xml version="1.0" ?><!DOCTYPE svg  PUBLIC '-//W3C//DTD SVG 1.1//EN'  'http://www.w3.org/Graphics/SVG/1.1/DTD/svg11.dtd'><svg height="798.799px" style="enable-background:new 0 0 1090.871 798.799;" version="1.1" viewBox="0 0 1090.871 798.799" width="1090.871px" xml:space="preserve" xmlns="http://www.w3.org/2000/svg" xmlns:xlink="http://www.w3.org/1999/xlink"><g id="Pan-fry"><g><path d="    M909.701,385.326c0,0-8.637-45.394-109.326-18.606c-100.674,26.787-77.367,70.876-77.367,70.876" style="fill:#EAE84A;stroke:#282526;stroke-width:14.6711;stroke-linecap:round;stroke-linejoin:round;stroke-miterlimit:10;"/><line style="fill:none;stroke:#282526;stroke-width:14.6711;stroke-linecap:round;stroke-linejoin:round;stroke-miterlimit:10;" x1="384.064" x2="264.403" y1="653.979" y2="653.979"/><path d="    M30.374,684.635c-12.723,0-23.038-10.803-23.038-24.122v-13.081c0-13.313,10.315-24.127,23.038-24.127h203.18    c12.701,0,22.998,10.813,22.998,24.127v13.081c0,13.319-10.297,24.122-22.998,24.122H30.374z" style="fill:#EB972C;stroke:#282526;stroke-width:14.6711;stroke-linecap:round;stroke-linejoin:round;stroke-miterlimit:10;"/><path d="    M379.326,621.266l17.746,122.703c0,26.219,43.728,47.494,69.937,47.494h528.828c26.207,0,69.916-21.274,69.916-47.494    l17.783-122.703H379.326z" style="fill:#EB972C;stroke:#282526;stroke-width:14.6711;stroke-linecap:round;stroke-linejoin:round;stroke-miterlimit:10;"/><line style="fill:none;stroke:#282526;stroke-width:14.6711;stroke-linecap:round;stroke-linejoin:round;stroke-miterlimit:10;" x1="1023.533" x2="1011.709" y1="652.333" y2="735.727"/><path d="    M576.449,625.588v74.759v4.179c0,7.088-6.533,12.842-14.596,12.842c-8.061,0-14.594-5.754-14.594-12.842V676.56v-0.654    c0-7.097-6.514-12.843-14.595-12.843c-8.061,0-14.574,5.746-14.574,12.843v50.804v4.122c0,7.125-6.534,12.879-14.594,12.879    c-8.043,0-14.577-5.754-14.577-12.879v-55.25v-3.506c0-7.083-6.553-12.861-14.612-12.861c-8.063,0-14.576,5.778-14.576,12.861    v10.631v4.15c0,7.105-6.533,12.874-14.596,12.874c-8.081,0-14.594-5.769-14.594-12.874v-27.958v-33.311" style="fill:#F1683A;stroke:#282526;stroke-width:14.6711;stroke-linecap:round;stroke-linejoin:round;stroke-miterlimit:10;"/><path d="    M544.165,254.677c0,0-22.119,156.018,131.753,131.752l1.854-1.867c24.26-153.875-131.752-131.777-131.752-131.777L544.165,254.677    z" style="fill:#87C555;stroke:#282526;stroke-width:14.6711;stroke-linecap:round;stroke-linejoin:round;stroke-miterlimit:10;"/><line style="fill:none;stroke:#282526;stroke-width:14.6711;stroke-linecap:round;stroke-linejoin:round;stroke-miterlimit:10;" x1="649.633" x2="606.881" y1="358.257" y2="315.543"/><line style="fill:none;stroke:#282526;stroke-width:14.6711;stroke-linecap:round;stroke-linejoin:round;stroke-miterlimit:10;" x1="583.518" x2="569.361" y1="292.18" y2="277.996"/><path d="    M981.984,8.435c0,0-156.051-22.088-131.789,131.753l1.889,1.881C1005.961,166.339,983.859,10.32,983.859,10.32L981.984,8.435z" style="fill:#87C555;stroke:#282526;stroke-width:14.6711;stroke-linecap:round;stroke-linejoin:round;stroke-miterlimit:10;"/><line style="fill:none;stroke:#282526;stroke-width:14.6711;stroke-linecap:round;stroke-linejoin:round;stroke-miterlimit:10;" x1="878.391" x2="921.084" y1="113.892" y2="71.202"/><line style="fill:none;stroke:#282526;stroke-width:14.6711;stroke-linecap:round;stroke-linejoin:round;stroke-miterlimit:10;" x1="944.486" x2="958.641" y1="47.801" y2="33.65"/><path d="    M1019.199,397.924c0,0-62.945,10.469-233.707,59.062c-173.797,49.462-229.482,80.763-290.154,80.763    c0,0-93.472,6.695-55.875-52.295c37.594-59.009,201.324-22.952,291.949-49.027c26.553-7.617,137.865-35.909,147.723-38.502    C964.258,375.478,1082.086,349.966,1019.199,397.924z" style="fill:none;stroke:#282526;stroke-width:14.6711;stroke-linecap:round;stroke-linejoin:round;stroke-miterlimit:10;"/></g></g><g id="Layer_1"/></svg>