<?xml version="1.0" ?><!DOCTYPE svg  PUBLIC '-//W3C//DTD SVG 1.1//EN'  'http://www.w3.org/Graphics/SVG/1.1/DTD/svg11.dtd'><svg enable-background="new 0 0 128 128" id="Слой_1" version="1.1" viewBox="0 0 128 128" xml:space="preserve" xmlns="http://www.w3.org/2000/svg" xmlns:xlink="http://www.w3.org/1999/xlink"><g><g><polygon fill="#826774" points="72.3,71.2 65.6,57.8 79.1,57.8   "/><g><path d="M78.2,60.8H66c-1.7,0-3-1.3-3-3s1.3-3,3-3h12.2c1.7,0,3,1.3,3,3S79.9,60.8,78.2,60.8z" fill="#454B54"/></g><rect fill="#F8E390" height="44.8" width="48.8" x="23.5" y="71.2"/><rect fill="#FFFFFF" height="12.2" width="18.1" x="30.8" y="96.7"/><polygon fill="#E4CAA6" points="72.3,71.2 23.5,71.2 14.5,53.3 63.3,53.3   "/><polygon fill="#F8E390" points="72.3,71.2 23.5,71.2 14.5,53.3 63.3,53.3   "/><g><path d="M72.3,74.2c-1.1,0-2.2-0.6-2.7-1.6l-8.2-16.3H19.4l6.8,13.6c0.7,1.5,0.2,3.3-1.3,4     c-1.5,0.7-3.3,0.2-4-1.3l-9-17.9c-0.5-0.9-0.4-2,0.1-2.9c0.5-0.9,1.5-1.4,2.6-1.4h48.8c1.1,0,2.2,0.6,2.7,1.6l9,17.9     c0.7,1.5,0.2,3.3-1.3,4C73.3,74.1,72.8,74.2,72.3,74.2z" fill="#454B54"/></g><rect fill="#E4CAA6" height="44.8" width="27.1" x="72.3" y="71.2"/><polygon fill="#E4CAA6" points="99.5,71.2 72.3,71.2 81.4,53.3 108.5,53.3   "/><rect fill="#DDC67F" height="44.8" width="27.1" x="72.3" y="71.2"/><polygon fill="#DDC67F" points="99.5,71.2 72.3,71.2 81.4,53.3 108.5,53.3   "/><g><path d="M99.5,74.2c-0.5,0-0.9-0.1-1.3-0.3c-1.5-0.7-2.1-2.6-1.3-4l6.8-13.6H83.2L75,72.6c-0.7,1.5-2.6,2.1-4,1.3     c-1.5-0.7-2.1-2.6-1.3-4l9-17.9c0.5-1,1.5-1.6,2.7-1.6h27.1c1,0,2,0.5,2.6,1.4c0.5,0.9,0.6,2,0.1,2.9l-9,17.9     C101.6,73.6,100.6,74.2,99.5,74.2z" fill="#454B54"/></g><g><path d="M72.3,119H23.5c-1.7,0-3-1.3-3-3V71.2c0-1.7,1.3-3,3-3h48.8c1.7,0,3,1.3,3,3V116     C75.3,117.7,74,119,72.3,119z M26.5,113h42.8V74.2H26.5V113z" fill="#454B54"/></g><g><path d="M99.5,119H72.3c-1.7,0-3-1.3-3-3V71.2c0-1.7,1.3-3,3-3h27.1c1.7,0,3,1.3,3,3V116     C102.5,117.7,101.1,119,99.5,119z M75.3,113h21.1V74.2H75.3V113z" fill="#454B54"/></g></g><path d="M79.9,16c0.9,0,1.6,0.4,2.1,1c0.5-0.6,1.3-1,2.1-1c1.6,0,2.9,1.2,2.9,2.8c0,0.9-0.4,1.7-1,2.2l0,0L82,24   l-3.9-3l0,0c-0.7-0.5-1.1-1.3-1.1-2.2C77,17.2,78.3,16,79.9,16z" fill="#E780B3"/><path d="M34.7,21.9c2.2,0,4.1,0.9,5.3,2.4c1.3-1.5,3.2-2.4,5.3-2.4c3.9,0,7.2,3.1,7.2,7c0,2.2-1,4.1-2.6,5.4l0,0   L40,42l-9.7-7.5l0,0c-1.7-1.3-2.8-3.3-2.8-5.5C27.5,25.1,30.7,21.9,34.7,21.9z" fill="#E780B3"/><path d="M68.4,35.1c1,0,2,0.4,2.6,1.1c0.6-0.7,1.6-1.1,2.6-1.1c1.9,0,3.4,1.5,3.4,3.4c0,1.1-0.5,2-1.3,2.6l0,0   L71,44.8l-4.7-3.6l0,0c-0.8-0.6-1.3-1.6-1.3-2.7C65,36.7,66.5,35.1,68.4,35.1z" fill="#E780B3"/></g></svg>