<?xml version="1.0" ?><!DOCTYPE svg  PUBLIC '-//W3C//DTD SVG 1.1//EN'  'http://www.w3.org/Graphics/SVG/1.1/DTD/svg11.dtd'><svg enable-background="new 0 0 128 128" id="Слой_1" version="1.1" viewBox="0 0 128 128" xml:space="preserve" xmlns="http://www.w3.org/2000/svg" xmlns:xlink="http://www.w3.org/1999/xlink"><g><g><path d="M113,124H15c-2.8,0-5-2.2-5-5V54h108v65C118,121.8,115.8,124,113,124z" fill="#5598A2"/></g><g><g><path d="M16,114l2-60h-8v65c0,2.8,2.2,5,5,5h11C20.5,124,16,119.5,16,114z" fill="#FFFFFF"/></g></g><g><path d="M124,64H4V39c0-2.8,2.2-5,5-5h110c2.8,0,5,2.2,5,5V64z" fill="#DCB992"/></g><g><g><path d="M126,34H9c-2.8,0-5,2.2-5,5v25h6l1-20.3c0-2.6,2-4.8,4.7-5C36.7,37.4,121.2,34,126,34z" fill="#FFFFFF"/></g></g><rect fill="#F36258" height="89" width="20" x="54" y="34.6"/><path d="M119,32.5H88.6c4.2-2.9,6.9-7.7,6.9-13.2C95.5,10,88.1,2.5,79,2.5c-6.7,0-12.4,4-15,9.8   c-2.6-5.8-8.3-9.8-15-9.8c-9.1,0-16.5,7.5-16.5,16.8c0,5.5,2.7,10.3,6.9,13.2H9c-3.6,0-6.5,2.9-6.5,6.5v25c0,0.8,0.7,1.5,1.5,1.5   h4.5V119c0,3.6,2.9,6.5,6.5,6.5h98c3.6,0,6.5-2.9,6.5-6.5V65.5h4.5c0.8,0,1.5-0.7,1.5-1.5V39C125.5,35.4,122.6,32.5,119,32.5z    M65.5,19.3c0-7.6,6.1-13.8,13.5-13.8s13.5,6.2,13.5,13.8c0,7.4-5.9,13.2-13.5,13.2H65.5V19.3z M35.5,19.3   c0-7.6,6.1-13.8,13.5-13.8s13.5,6.2,13.5,13.8v13.2H49C41.4,32.5,35.5,26.7,35.5,19.3z M116.5,119c0,1.9-1.6,3.5-3.5,3.5H15   c-1.9,0-3.5-1.6-3.5-3.5V65.5h105V119z M122.5,62.5H5.5V39c0-1.9,1.6-3.5,3.5-3.5h40h15h15h40c1.9,0,3.5,1.6,3.5,3.5V62.5z" fill="#4A374F"/><rect fill="#F36258" height="23.4" width="20" x="54" y="50"/></g><line fill="none" stroke="#4A374F" stroke-miterlimit="10" stroke-width="3" x1="54" x2="54" y1="123.6" y2="34.6"/><line fill="none" stroke="#4A374F" stroke-miterlimit="10" stroke-width="3" x1="74" x2="74" y1="34.6" y2="123.6"/></svg>