<?xml version="1.0" ?><!DOCTYPE svg  PUBLIC '-//W3C//DTD SVG 1.1//EN'  'http://www.w3.org/Graphics/SVG/1.1/DTD/svg11.dtd'><svg enable-background="new 0 0 128 128" version="1.1" viewBox="0 0 128 128" xml:space="preserve" xmlns="http://www.w3.org/2000/svg" xmlns:xlink="http://www.w3.org/1999/xlink"><g id="Слой_1"><g><circle cx="64" cy="64" fill="#EAEAEA" r="57.5"/><path d="M21.5,64c0-29.2,21.8-53.3,50-57c-2.5-0.3-5-0.5-7.5-0.5C32.2,6.5,6.5,32.2,6.5,64s25.7,57.5,57.5,57.5    c2.5,0,5-0.2,7.5-0.5C43.3,117.3,21.5,93.2,21.5,64z" fill="#FDFDFE"/><circle cx="64" cy="64" fill="#92D3CB" r="38.3"/><circle cx="64" cy="64" fill="#F37C87" r="19.2"/><polygon fill="#E3D34C" points="114.2,21.1 124.9,10.6 118.5,9.8 117.8,3.5 107.2,14 108,20.3   "/><path d="M119.9,8.5l-0.6-5.2c-0.1-0.6-0.4-1.1-1-1.3c-0.5-0.2-1.1-0.1-1.6,0.3L106.1,13c-0.3,0.3-0.5,0.8-0.4,1.3    l0.7,5.5l-1.6,1.6C94.1,11.3,79.8,5,64,5C31.5,5,5,31.5,5,64s26.5,59,59,59c32.5,0,59-26.5,59-59c0-15.7-6.1-29.9-16.1-40.5    l1.6-1.6l5.5,0.7c0.1,0,0.1,0,0.2,0c0.4,0,0.8-0.2,1.1-0.4l10.6-10.6c0.4-0.4,0.5-1,0.4-1.6s-0.7-0.9-1.2-1L119.9,8.5z M120,64    c0,30.9-25.1,56-56,56C33.1,120,8,94.9,8,64S33.1,8,64,8c15,0,28.6,5.9,38.6,15.5L91.2,34.9C84,28.2,74.5,24.2,64,24.2    C42,24.2,24.2,42,24.2,64S42,103.8,64,103.8c22,0,39.8-17.9,39.8-39.8c0-10.4-4-19.9-10.6-27l11.5-11.4    C114.2,35.7,120,49.2,120,64z M64,68c2.2,0,4-1.8,4-4c0-0.5-0.1-1.1-0.3-1.5l9.8-9.8c2.6,3.1,4.1,7,4.1,11.3    c0,9.7-7.9,17.7-17.7,17.7S46.3,73.7,46.3,64S54.3,46.3,64,46.3c4.4,0,8.3,1.6,11.4,4.2l-9.8,9.8c-0.5-0.2-1-0.3-1.6-0.3    c-2.2,0-4,1.8-4,4S61.8,68,64,68z M64,43.3c-11.4,0-20.7,9.3-20.7,20.7S52.6,84.7,64,84.7S84.7,75.4,84.7,64c0-5.1-1.9-9.8-5-13.4    l11.5-11.4c6,6.6,9.7,15.3,9.7,24.9c0,20.3-16.5,36.8-36.8,36.8c-20.3,0-36.8-16.5-36.8-36.8S43.7,27.2,64,27.2    c9.7,0,18.5,3.7,25,9.8L77.5,48.4C73.9,45.3,69.2,43.3,64,43.3z M113.7,19.5l-4.4-0.6l-0.6-4.4l7.9-7.9L117,10    c0.1,0.7,0.6,1.2,1.3,1.3l3.3,0.4L113.7,19.5z" fill="#454B54"/></g></g></svg>