<?xml version="1.0" ?><svg enable-background="new 0 0 64 64" id="XMLID_1_" version="1.1" viewBox="0 0 64 64" xml:space="preserve" xmlns="http://www.w3.org/2000/svg" xmlns:xlink="http://www.w3.org/1999/xlink"><g id="flat-icon-311"><g><path d="M46.4874,25.1469l-3.3198-6.6396c-0.438-0.8765-1.1826-1.5615-2.0923-1.9253l-3.5879-1.4351    c0-1.1045-0.8955-2-2-2h-6c-1.1045,0-2,0.8955-2,2l-3.5879,1.4351c-0.9097,0.3638-1.6543,1.0488-2.0923,1.9253l-3.3198,6.6396    l-6,4l2,4l5.6147-2.8076c1.5483-0.7739,2.8037-2.0293,3.5776-3.5776l0.8076-1.6147v14h16v-14l0.8076,1.6147    c0.7739,1.5483,2.0293,2.8037,3.5776,3.5776l5.6147,2.8076l2-4L46.4874,25.1469z" fill="#78A1D5"/><g><path d="M40.4874,34.1577c-2.108,0.848-5.0248,1.3731-8.2496,1.3731c-2.9924,0-5.6926-0.4643-7.7546-1.2066v6.804     c2.3456,0.7138,5.0867,1.0639,7.7546,1.0639c2.8571,0,5.8017-0.3984,8.2496-1.2197V34.1577z" fill="#555655"/></g><g><g><path d="M32.4874,55.1547c-11.0459,0-20,2.2368-20,4.9961s8.9541,4.9961,20,4.9961s20-2.2368,20-4.9961      S43.5333,55.1547,32.4874,55.1547z" fill="#CCCCCC"/><g><g><path d="M13.3252,33.4868c-0.6152,0-1.2676-0.1172-1.8867-0.3398c-0.707-0.252-2.1855-1.0371-2.748-2.2188        C8.46,30.4379,8.4229,29.9145,8.587,29.4575c0.1836-0.5215,0.7656-1.3887,2.5938-1.3887c0.6641,0,1.375,0.1172,1.9492,0.3203        c2.0332,0.7266,3.3086,2.3848,2.8418,3.6953C15.6612,32.9496,14.6475,33.4868,13.3252,33.4868z" fill="#F7DED0"/></g></g><path d="M50.2745,33.5121c-0.9102-2.0078-3.2891-2.8945-5.3066-1.9805l-12.397,6.6733l-12.3975-6.6733      c-2.0176-0.9141-4.3965-0.0273-5.3066,1.9805c-0.9121,2.0078-0.0215,4.3848,1.9844,5.2988l7.7979,3.6582L20.688,44.601      c-1.6216,0.7578-2.3213,2.687-1.563,4.3086c0.7578,1.6211,2.686,2.3208,4.3071,1.563l9.1387-4.2871l9.1382,4.2871      c1.6211,0.7578,3.5498,0.0581,4.3076-1.563c0.7578-1.6216,0.0581-3.5508-1.5635-4.3086l-3.9609-2.1318l7.7979-3.6582      C50.296,37.8969,51.1866,35.52,50.2745,33.5121z" fill="#787878"/><path d="M35.4874,9.1469h-6v7l2.201,2.201c0.4413,0.4413,1.1567,0.4413,1.5979,0l2.201-2.201V9.1469z" fill="#F7DED0"/><path d="M46.4874,43.1469c-0.7144,0-1.312,0.3955-1.666,0.959c-2.4814,0.3247-4.334,1.5591-4.334,3.041      s1.8525,2.7158,4.334,3.041c0.354,0.5635,0.9517,0.959,1.666,0.959c1.1045,0,2-0.8955,2-2v-4      C48.4874,44.0424,47.5919,43.1469,46.4874,43.1469z" fill="#F7DED0"/><path d="M37.937,7.3647c-0.1172-0.1172-0.2925-0.1182-0.4619-0.0918c0.071-2.9119-2.2662-5.126-4.9878-5.126      c-2.6699,0-4.9961,2.1326-4.9961,5.0425c-0.1162,0.0122-0.2417,0.0449-0.3867,0.1265c-0.5659,0.3652-0.6602,1.1338-0.5225,1.833      c0.168,0.854,0.5757,1.458,1.3125,1.9321c0.0078,0.061,0.0166,0.1235,0.0254,0.188c0.1643,1.1711,0.802,2.0676,1.5674,2.7148      v2.1631l2.2012,2.2009c0.4412,0.4414,1.1566,0.4414,1.5979,0l2.2009-2.2009v-2.1653c0.7644-0.6472,1.4011-1.5427,1.5654-2.7126      c0.0068-0.0518,0.0166-0.1211,0.0254-0.187c0.7363-0.4741,1.1445-1.0776,1.3125-1.9312      C38.5215,8.4843,38.4424,7.7514,37.937,7.3647z" fill="#F7DED0"/><g><path d="M37.6871,3.9106c-0.0088,0-0.2651-0.6338-0.8828-1.2578c-3.0605-3.4976-7.5762-1.7314-7.5762-1.7314       c1.0654,0.0708,1.3774,0.8374,1.3774,0.8374c-1.7383-0.1416-2.8535,0.9434-2.8535,0.9434h1.0825       c-1.397,0.4126-2.6538,2.3335-2.168,5.1509c0,0,0.6426,0.3247,1.167,1.6094c0.0454,0.1113,0.1704,0.0742,0.1704-0.0454       c0-1.4336-0.0698-3.0571,1.2974-3.7231c0,0,0.3188,1.4653,2.0786,2.0161c0,0-0.3872-1.3525,0.2031-2.1221       c1.1069,1.4038,4.0942,1.8203,5.9053,1.7778c-0.0005,0.001-0.1465,0.3779-0.519,0.6426v1.4087       c0,0.1196,0.1313,0.1592,0.1675,0.0454c0.2729-0.8613,1.2231-1.5566,1.2231-1.5566       C38.545,6.6406,38.2134,4.8456,37.6871,3.9106z" fill="#010101"/></g><g><ellipse cx="30.313" cy="9.3236" fill="#010101" rx="0.5979" ry="0.6961"/><ellipse cx="34.6595" cy="9.3236" fill="#010101" rx="0.5979" ry="0.6961"/></g></g><path d="M19.8086,49.8549c0.9375,0.9106,2.3691,1.2041,3.6235,0.6177l9.125-4.2808l4.8652,2.2695     c-0.0195-0.1987-0.0601-0.3916-0.0601-0.5957c0-2.1406,1.0947-4.0229,2.7529-5.126c0.2241-0.1748,0.3721-0.2681,0.3721-0.2681     l7.8027-3.6606c1.395-0.6357,2.2314-1.9814,2.3154-3.416L19.8086,49.8549z" fill="#555655"/><path d="M24.4874,47.1469c0-1.4819-1.8525-2.7163-4.334-3.041c-0.354-0.5635-0.9517-0.959-1.666-0.959     c-1.1045,0-2,0.8955-2,2v4c0,1.1045,0.8955,2,2,2c0.7144,0,1.312-0.3955,1.666-0.959     C22.6348,49.8627,24.4874,48.6288,24.4874,47.1469z" fill="#F7DED0"/></g><g><g><path d="M51.5967,33.4672c-1.8242,0-2.4121-0.877-2.5996-1.3984c-0.5684-1.6152,1.3613-3.1523,2.8438-3.6797      c0.5742-0.2051,1.3047-0.3262,1.9609-0.3262c1.8145,0,2.4004,0.877,2.5879,1.4004c0.5684,1.6152-1.3613,3.1523-2.8457,3.6816      C52.9678,33.35,52.2588,33.4672,51.5967,33.4672z" fill="#F7DED0"/></g></g></g><path d="M32.4873,15.7221c-0.6494-0.0012-1.2253-0.3359-1.5962-0.854c-0.4673-0.2124-0.9561-0.5044-1.4038-0.8843   l3.0107,3.0093v1.6838c0.2855-0.0029,0.5704-0.1111,0.7883-0.3291l2.2009-2.2009v-2.1653   c-0.4478,0.3799-0.9365,0.6741-1.4038,0.8865C33.7126,15.3862,33.1367,15.7209,32.4873,15.7221z" fill="#DFC1B3"/></g></svg>