<?xml version="1.0" ?><!DOCTYPE svg  PUBLIC '-//W3C//DTD SVG 1.1//EN'  'http://www.w3.org/Graphics/SVG/1.1/DTD/svg11.dtd'><svg enable-background="new 0 0 512 512" id="Layer_1" version="1.1" viewBox="0 0 512 512" xml:space="preserve" xmlns="http://www.w3.org/2000/svg" xmlns:xlink="http://www.w3.org/1999/xlink"><g><path d="M508,298.2c-17.5-30.7-33.4-49.5-41.7-64.4c-13.6-24.5-14.2-35.8-10.5-76.9c2-22.3-3.9-42.1-13.1-59   C413.1,35.5,337.1,2,269,2C131,2,43,106.8,43,231.6c0,57.2,21.3,109.4,56.3,149.2c15.8,41.4,24.8,85,26.7,129.2h215.6v-42.6   c0,0,39.5,0,84.5,0c45,0,51.6-17.6,47.2-39.5c-2.9-14.6,2.4-27.3,6.3-34.2c1.9-3.3,1.1-7.4-1.9-9.8l-16-13.1l15.4-11.6   c2.9-2.2,3.9-6.1,2.4-9.4l-12.8-28.4h27.5C506.2,321.5,513.9,308.5,508,298.2z" fill="#FBD984"/><g><path d="M268.2,184.6c-6.4,1.7-11.5,7.1-12.9,13.6c-1.3,6.1,0.4,11.8,3.9,15.9c5.1,5.9,7.6,13.5,7.6,21.3v0h-62.1    v62.1h0c-7.8,0-15.4-2.5-21.3-7.6c-4.1-3.5-9.8-5.3-15.9-3.9c-6.5,1.4-11.9,6.5-13.6,12.9c-3.2,12.2,6,23.2,17.7,23.2    c4.4,0,8.4-1.5,11.5-4.1c6.1-5,13.7-7.9,21.7-7.9v62.1h136.8V235.4h-62.1v0c0-7.9,2.9-15.5,7.9-21.7c2.6-3.1,4.1-7.1,4.1-11.5    C291.4,190.5,280.4,181.4,268.2,184.6z" fill="#41B3E2"/><path d="M138.8,27.3H2v136.8h64.7c0-7.9-2.9-15.5-7.9-21.7c-2.6-3.1-4.1-7.1-4.1-11.5c0-11.7,11-20.8,23.2-17.7    c6.4,1.7,11.5,7.1,12.9,13.6c1.3,6.1-0.4,11.8-3.9,15.9c-5.1,5.9-7.6,13.5-7.6,21.3v0h59.6V102c7.9,0,15.5,2.9,21.7,7.9    c3.1,2.6,7.1,4.1,11.5,4.1c11.7,0,20.8-11,17.7-23.2c-1.7-6.4-7.1-11.5-13.6-12.9c-6.1-1.3-11.8,0.4-15.9,3.9    c-5.9,5.1-13.5,7.6-21.3,7.6h0V27.3z" fill="#EFF3F5"/><path d="M54.7,131c0,4.4,1.5,8.4,4.1,11.5c5,6.1,7.9,13.7,7.9,21.7H2V301h136.8v-62.1c-7.9,0-15.5,2.9-21.7,7.9    c-3.1,2.6-7.1,4.1-11.5,4.1c-11.7,0-20.8-11-17.7-23.2c1.7-6.4,7.1-11.5,13.6-12.9c6.1-1.3,11.8,0.4,15.9,3.9    c5.9,5.1,13.5,7.6,21.3,7.6h0v-62.1H79.3v0c0-7.8,2.5-15.4,7.6-21.3c3.5-4.1,5.3-9.8,3.9-15.9c-1.4-6.5-6.5-11.9-12.9-13.6    C65.7,110.2,54.7,119.3,54.7,131z" fill="#F1786B"/><path d="M138.8,89.5L138.8,89.5c7.8,0,15.4-2.5,21.3-7.6c4.1-3.5,9.8-5.3,15.9-3.9c6.5,1.4,11.9,6.5,13.6,12.9    c3.2,12.2-6,23.2-17.7,23.2c-4.4,0-8.4-1.5-11.5-4.1c-6.1-5-13.7-7.9-21.7-7.9v62.1H201v0c0-7.8-2.5-15.4-7.6-21.3    c-3.5-4.1-5.3-9.8-3.9-15.9c1.4-6.5,6.5-11.9,12.9-13.6c12.2-3.2,23.2,6,23.2,17.7c0,4.4-1.5,8.4-4.1,11.5    c-5,6.1-7.9,13.7-7.9,21.7v0h62.1V27.3H138.8V89.5z" fill="#5AC8AE"/></g></g></svg>