<?xml version="1.0" ?><!DOCTYPE svg  PUBLIC '-//W3C//DTD SVG 1.1//EN'  'http://www.w3.org/Graphics/SVG/1.1/DTD/svg11.dtd'><svg enable-background="new 0 0 256 256" height="256px" id="Layer_1" version="1.1" viewBox="0 0 256 256" width="256px" xml:space="preserve" xmlns="http://www.w3.org/2000/svg" xmlns:xlink="http://www.w3.org/1999/xlink"><g><path d="M70.987,163.63l16.075-37.717c0.66-1.551,1.897-2.68,3.355-3.241l108.614-57.298L70.987,110.935V163.63    L70.987,163.63z M99.519,126.896c23.8,25.176,47.6,50.353,71.399,75.529l67.713-148.917L99.519,126.896L99.519,126.896z     M208.783,53.429L23.007,73.278l45.097,30.207L208.783,53.429L208.783,53.429z M94.495,139.006l-15.108,35.448L107.63,152.9    L94.495,139.006L94.495,139.006z M168.328,217.108L115.9,161.649l-46.96,35.838c-1.056,0.926-2.439,1.487-3.953,1.487    c-3.313,0-6-2.687-6-6v-81.2L2.879,74.193c-4.833-2.94-3.245-10.462,2.475-11.07l243.789-26.048    c4.596-0.659,8.26,4.055,6.305,8.391l-77.303,170.001C176.4,219.304,171.281,220.234,168.328,217.108L168.328,217.108z" fill="#2B79C2"/></g></svg>