<?xml version="1.0" ?><svg enable-background="new 0 0 64 64" id="Layer_1" version="1.1" viewBox="0 0 64 64" xml:space="preserve" xmlns="http://www.w3.org/2000/svg" xmlns:xlink="http://www.w3.org/1999/xlink"><g><path d="M33.271,37.271l0.174,0.119l-7.317,6.427c0.739,3.611,0.388,7.448-1.166,10.957   c-0.03,0.014-0.056,0.035-0.068,0.054c-0.039,0.053-0.023,0.139,0.033,0.175c0.054,0.037,0.13,0.021,0.169-0.03l5.594-8.604   c-0.108-0.197-0.102-0.452,0.032-0.646c0.19-0.285,0.566-0.35,0.849-0.16c0.172,0.115,0.265,0.31,0.266,0.51   c0.001,0.118-0.033,0.235-0.102,0.337c-0.139,0.2-0.368,0.298-0.593,0.266l-5.981,8.343c-0.004,0.006-0.006,0.014-0.008,0.019   c-0.016,0.037-0.016,0.082,0.008,0.118c0.008,0.015,0.019,0.029,0.034,0.041c0.06,0.031,0.138,0.018,0.177-0.033   c0-0.002,0-0.002,0.001-0.003c0.001-0.002,0.003-0.002,0.003-0.004c0.008-0.01,0.01-0.023,0.013-0.035   c0-0.002,0.001-0.003,0.001-0.005c0.004-0.015,0.004-0.032,0.006-0.044c0.205-0.207,0.413-0.405,0.627-0.599   c2.335-2.141,5.16-3.583,8.144-4.269c0.333-0.076,0.668-0.147,1.004-0.204l0.046-0.131l3.17-9.104l-0.014-0.012l0.31,0.212   l4.864-5.432l-6.986-4.773L33.271,37.271z" fill="#3C4752"/><path d="M58.644,5.919c-1.115-0.76-2.521-1.097-3.955-0.827s-2.62,1.095-3.384,2.209l-0.542,0.794l-0.258-0.178   c-0.425-0.29-0.938-0.396-1.443-0.3c-0.506,0.098-0.942,0.385-1.231,0.81l-5.858,8.662c-0.198,0.291-0.122,0.687,0.169,0.886   c0,0.002,0.002,0.002,0.003,0.002c0.293,0.198,0.69,0.122,0.888-0.172l5.859-8.66c0.095-0.143,0.242-0.239,0.41-0.271   c0.169-0.032,0.341,0.004,0.482,0.1l0.255,0.175l0.72-1.054l-0.719,1.059L36.233,29.371l6.284,4.293l1.678,1.146l-0.008,0.009   l0.008-0.009l0.756,0.517l15.121-22.133c0.763-1.116,1.053-2.457,0.785-3.89C60.586,7.871,59.761,6.682,58.644,5.919z    M50.178,12.926l-6.815,9.978c-0.198,0.29-0.597,0.366-0.889,0.167c-0.291-0.199-0.367-0.599-0.167-0.889l6.814-9.977   c0.199-0.293,0.598-0.368,0.89-0.168C50.301,12.236,50.377,12.635,50.178,12.926z M58.272,7.602c-0.2,0.292-0.599,0.368-0.89,0.169   c-0.671-0.459-1.479-0.628-2.278-0.477c-0.442,0.083-0.851,0.26-1.221,0.528c-0.224,0.164-0.519,0.159-0.737,0.011   c-0.06-0.041-0.113-0.091-0.156-0.152c-0.208-0.287-0.145-0.687,0.14-0.894c0.523-0.381,1.108-0.632,1.737-0.751   c1.133-0.213,2.284,0.027,3.236,0.677C58.396,6.912,58.47,7.309,58.272,7.602z" fill="#2F7ABF"/><path d="M4.828,58.514c0.796-1.546,2.463-2.317,4.005-2.945c0.333-0.135,0.875-0.444,1.159-0.144   c0.191,0.202,0.218,0.676,0.296,0.934c0.23,0.762,0.594,1.449,1.306,1.859c1.721,0.991,3.436-0.164,4.865-1.074   c1.725-1.099,3.72-1.185,5.708-1.242c1.239-0.036,1.245-1.966,0-1.93c-2.119,0.061-4.323,0.17-6.219,1.224   c-0.846,0.47-1.666,1.329-2.663,1.45c-0.984,0.119-1.063-0.627-1.298-1.378c-0.259-0.826-0.724-1.584-1.611-1.83   c-1.013-0.281-2.036,0.249-2.939,0.645c-1.711,0.75-3.394,1.741-4.278,3.458C2.593,58.642,4.258,59.62,4.828,58.514L4.828,58.514z" fill="#2F7ABF"/></g></svg>