<?xml version="1.0" ?><svg id="Layer_1" style="enable-background:new 0 0 512 512;" version="1.1" viewBox="0 0 512 512" xml:space="preserve" xmlns="http://www.w3.org/2000/svg" xmlns:xlink="http://www.w3.org/1999/xlink"><style type="text/css">
	.st0{fill:#2D2D2D;}
	.st1{fill:#5EA4D3;}
</style><g id="XMLID_319_"><path class="st0" d="M253.3,168.6c33.2,0,60.2-26.9,60.2-60.2c0-33.2-26.9-60.2-60.2-60.2   c-33.2,0-60.2,26.9-60.2,60.2C193.1,141.7,220,168.6,253.3,168.6z M253.3,59.9c26.7,0,48.5,21.8,48.5,48.5s-21.8,48.5-48.5,48.5   s-48.5-21.8-48.5-48.5S226.5,59.9,253.3,59.9z" id="XMLID_341_"/><path class="st1" d="M502.3,268.9c-12.3-7.4-27.5-11.9-41.4-8.4c-3.5-2.1-7.3-3.6-11.3-4.7   c-8.4-2.3-17.4-3.9-26.4-4.6c-13.7-48.3-58.3-87.6-116.8-105c-5.5,7.7-12.6,14.2-20.9,18.9c7.8,2.1,15.4,4.7,22.8,7.8   c3.8,1.7,4.7,7.3,2.8,10.5c-2.3,3.9-6.7,4.4-10.5,2.8c-12-5.2-25-8.7-38-10.3c-18.3-2.2-35.9-0.9-53.2,3.4c-5.4,1.4-10.8,3-16,5   c-0.8,0.3-1.5,0.6-2.3,0.9c-0.2,0.1-0.3,0.1-0.5,0.2c-0.5,0.2-1,0.4-1.5,0.7c-3.7,1.9-8.3,1-10.5-2.8c-2-3.4-1-8.7,2.8-10.5   c3.1-1.5,6.3-2.8,9.5-4c8.3-3,16.8-5.3,25.4-6.9c-8.2-5.7-15-13.2-19.9-21.9c-10.7,1.9-21.1,4.5-31,7.7   c-20.4-16.5-42.7-23.3-58.3-26.1c-0.6-0.1-1.1-0.1-1.7-0.1c-3.8,0-7.1,2.5-8.4,6.1c-1.2,3.7,0,7.5,3,9.9   c10.8,8.3,19,17.8,24.5,28.5c-19.4,11.4-35.9,25.6-48.4,41.9c-0.4,0-0.9,0-1.3,0.1l-52.9,5.4c-4.2,0.4-7.7,2.6-8.9,5.7   c-6.8,16.9-23.2,72.9,40,109.9c1.1,0.6,2.3,1.1,3.5,1.4c10.7-4,21.5-8,31.7-13.2c7.2-3.6,17.3-8.7,23.5-15.4   c1.5-1.6,4.3-0.4,4.1,1.8c-0.4,5.7-2.2,11.6-4.1,16.6c-6.5,16.6-19.1,29.9-33.2,40.4c4,5,8.4,9.7,13.2,14.3   c5.3,5.1,8.8,11.9,10,19.2l10.7,67.9c0.5,3.4,68.4,1.3,67.7-1.6l-9.1-40.8c21,6.2,43.7,9.6,67.5,9.6c23.4,0,45.7-3.3,66.4-9.3   l-8.5,40.3c-0.6,2.9,66.7,5.2,67.3,1.8l10.5-66.7c1.2-7.4,4.8-14.3,10.2-19.4c27-25.3,43.2-57.7,43.2-93.1c0-5.3-0.4-10.5-1.1-15.7   c2.5,0.3,4.9,0.6,7.1,1c3.5,0.6,6.9,1.2,10.3,2.1c-9.9,10.7-12.5,27.8-1.7,39.2c6.4,6.8,16.5,8.4,24.6,3.5c8.9-5.4,12-16,10.5-25.8   c-0.6-4.3-2-8.6-4-12.6c7.5,0.6,15,3.9,21.2,7.6C503.1,287.3,510.8,274,502.3,268.9z M9.5,261.1c0-2.3,1.8-4.1,4.1-4.1h0.5   c2.3,0,4.1,1.8,4.1,4.1s-1.8,4.1-4.1,4.1h-0.5C11.4,265.2,9.5,263.3,9.5,261.1z M18,277h-0.5c-2.3,0-4.1-1.8-4.1-4.1   s1.8-4.1,4.1-4.1H18c2.3,0,4.1,1.8,4.1,4.1S20.3,277,18,277z M123.6,247.9c-7.4,0-13.4-6-13.4-13.4s6-13.4,13.4-13.4   s13.4,6,13.4,13.4S130.9,247.9,123.6,247.9z M456.6,300.6c-4.4-0.4-6-6.3-5.9-9.8c0.1-4.6,2.6-9,6.3-11.8c0.3-0.2,0.5-0.4,0.8-0.6   c2.8,4,4.8,9.4,4.6,14.3C462.3,296.2,460,300.9,456.6,300.6z" id="XMLID_326_"/><circle class="st0" cx="123.6" cy="231.6" id="XMLID_323_" r="7.5"/><path class="st1" d="M250.6,139.1v8h6.5v-8c5.1-0.5,9.1-2.2,12-5c2.9-2.8,4.4-6.6,4.4-11.3c0-4.9-1.5-8.8-4.5-11.6   c-3-2.8-7.5-5.2-13.5-7.2c-3.4-1.4-5.7-2.8-6.9-4c-1.2-1.2-1.8-2.9-1.8-5c0-2.2,0.6-4,1.7-5.4c1.1-1.3,3-2,5.5-2   c2.4,0,4.3,0.8,5.6,2.4c1.3,1.6,2,3.9,2,6.8h11.6l0.1-0.2c0.1-5-1.3-9.1-4-12.2c-2.8-3.1-6.6-5-11.5-5.7v-8.8h-6.5v8.7   c-5.1,0.5-9.1,2.2-12,5.1c-3,2.9-4.4,6.7-4.4,11.2c0,5,1.5,8.8,4.4,11.5c3,2.7,7.5,5.1,13.6,7.2c3.2,1.2,5.5,2.5,6.8,3.9   c1.3,1.3,1.9,3.1,1.9,5.3c0,2.2-0.7,4-2,5.3c-1.3,1.3-3.3,1.9-6,1.9c-2.7,0-4.9-0.7-6.6-2.2c-1.7-1.5-2.5-3.9-2.5-7.4h-11.5   l-0.1,0.2c-0.1,5.8,1.5,10.2,4.9,13.2C241.2,136.9,245.4,138.6,250.6,139.1z" id="XMLID_320_"/></g></svg>