<?xml version="1.0" ?><!DOCTYPE svg  PUBLIC '-//W3C//DTD SVG 1.1//EN'  'http://www.w3.org/Graphics/SVG/1.1/DTD/svg11.dtd'><svg enable-background="new 0 0 48 48" id="Layer_1" version="1.1" viewBox="0 0 48 48" xml:space="preserve" xmlns="http://www.w3.org/2000/svg" xmlns:xlink="http://www.w3.org/1999/xlink"><g><g><path d="M9.5,44.1c3.3,1.6,6.8,2.2,6.8,2.2c6.8,0.4,12.8-2.2,12.8-2.2c0,1.3,0.3,2.6,0.7,3.8h8.9    c2.6-3.6,4.8-8.8,3.6-15.6c-2.6,0.8-4-1-4-1C32.5,27.2,26,31.9,26,31.9c-7.4-5.4-13.2,1.5-13.2,1.5c0.6-0.9,1-5.2,1-5.2    c0.6-5.4,2.9-10.2,2.9-10.2c0.4-2.3,3-2,3-2c1.2,0.9,2.6,1,2.6,1c2.4,0.7,2.9,0,2.9,0c0.4,1.5,1.3,0.9,1.3,0.9    c1.8-0.9,0.5-2.4,0.5-2.4c-0.7-0.8,0.4-1.2,0.4-1.2c1-0.4,0.7-1,0.7-1l-2.4-5.4c-2.4-0.5-7.8,1.8-7.8,1.8c-4.6,1-6.3,6.4-6.3,6.4    s-13,17.1-11.3,22.3C1.9,43.5,9.5,44.1,9.5,44.1z" fill="#FFD15C"/><path d="M28,34.3c0.3,0.4,0.7,1,1.1,1.7c0.4,0.8,0.7,1.7,0.9,2.7c0.2,1,0.4,2.2,0.8,3.4c0.4,1.1,1,2.2,1.7,3.1    c0.7,0.9,1.5,1.6,2.3,2.1c0.3,0.2,0.7,0.4,1,0.5h0.9c-0.4-0.2-0.9-0.6-1.5-1.1c-1.2-1.2-2.5-3-3.2-5.1c-0.4-1-0.6-2.1-1-3.2    c-0.4-1.1-0.8-2-1.4-2.8c-0.5-0.7-1.1-1.2-1.6-1.5c-0.4-0.3-0.7-0.4-0.7-0.4S27.7,33.9,28,34.3z" fill="#F8B64C"/><path d="M13.5,39.6c0,0,0.9,0.2,2.3,0.4c1.4,0.2,3.1,0.4,4.9,0.3c0.4,0,0.9,0,1.3-0.1c0.4-0.1,0.9-0.1,1.2-0.2    c0.4-0.1,0.8-0.2,1.1-0.3c0.3-0.1,0.7-0.2,1-0.4c0.3-0.2,0.6-0.3,0.8-0.4c0.2-0.1,0.4-0.3,0.6-0.4c0.3-0.2,0.6-0.3,0.6-0.3    s-0.1,0.2-0.4,0.5c-0.3,0.3-0.7,0.8-1.3,1.2c-0.3,0.2-0.6,0.4-1,0.6c-0.4,0.2-0.8,0.4-1.2,0.5c-0.9,0.3-1.8,0.4-2.8,0.5    c-1,0-1.9,0-2.8-0.2c-0.9-0.1-1.7-0.4-2.3-0.7C14.3,40.1,13.5,39.6,13.5,39.6z" fill="#F8B64C"/><path d="M10.1,34.2c0,0-0.1-0.2-0.3-0.5c-0.2-0.3-0.5-0.8-0.7-1.5c-0.2-0.6-0.4-1.4-0.4-2.3c0-0.9,0.1-1.8,0.3-2.7    c0.3-0.9,0.6-1.7,1-2.5c0.4-0.7,0.9-1.4,1.3-1.9c0.9-1,1.7-1.5,1.7-1.5s-0.1,0.2-0.3,0.5c-0.2,0.3-0.5,0.8-0.8,1.3    c-0.6,1.1-1.3,2.7-1.7,4.3c-0.2,0.8-0.3,1.6-0.4,2.4c-0.1,0.8-0.1,1.5,0,2.1c0.1,0.6,0.1,1.2,0.2,1.5    C10.1,33.9,10.1,34.2,10.1,34.2z" fill="#F8B64C"/><path d="M38.8,47.9H48l0-16.7c-2.3-0.1-5.4,1.1-5.4,1.1c-0.1,0-0.1,0-0.2,0C43.6,39.1,41.4,44.3,38.8,47.9z" fill="#FF7058"/><path d="M9.5,44.1c3.3,1.6,6.8,2.2,6.8,2.2c6.8,0.4,12.8-2.2,12.8-2.2c0,1.3,0.3,2.6,0.7,3.8h1.4    c-0.7-1.4-1.1-3-1.1-4.8c0,0-6,2.6-12.8,2.2c0,0-3.6-0.6-6.8-2.2c0,0-7.6-0.6-9.3-5.8c-0.7-2,2.6-9.7,2.6-9.7    c-2.4,4.2-4.3,8.5-3.6,10.7C1.9,43.5,9.5,44.1,9.5,44.1z" fill="#231F20" opacity="0.1"/><path d="M25,32.9c0,0,6.6-4.7,12.4-0.5c0,0,1.4,1.7,4,1c1.1,6.1-0.6,11-2.9,14.6h0.3    c2.6-3.6,4.8-8.8,3.6-15.6c-2.6,0.8-4-1-4-1C32.5,27.2,26,31.9,26,31.9c-7.4-5.4-13.2,1.5-13.2,1.5c0.6-0.9,1-5.2,1-5.2    c0.6-5.4,2.9-10.2,2.9-10.2c0-0.3,0.1-0.5,0.2-0.7c-0.5,0.3-1.1,0.8-1.2,1.7c0,0-2.2,4.8-2.9,10.2c0,0-0.4,4.3-1,5.2    C11.8,34.4,17.5,27.4,25,32.9z" fill="#231F20" opacity="0.1"/></g><g><circle cx="18.4" cy="11.7" fill="#40596B" r="11.6"/><g><g><path d="M18.4,20.4c-4.8,0-8.6-3.9-8.6-8.6s3.9-8.6,8.6-8.6c4.8,0,8.6,3.9,8.6,8.6S23.2,20.4,18.4,20.4z       M18.4,5.6c-3.4,0-6.1,2.7-6.1,6.1s2.7,6.1,6.1,6.1s6.1-2.7,6.1-6.1S21.8,5.6,18.4,5.6z" fill="#334A5E"/></g><circle cx="18.4" cy="11.7" fill="#CDD6E0" r="2.1"/></g></g></g></svg>