<?xml version="1.0" ?><!DOCTYPE svg  PUBLIC '-//W3C//DTD SVG 1.1//EN'  'http://www.w3.org/Graphics/SVG/1.1/DTD/svg11.dtd'><svg enable-background="new 0 0 128 128" version="1.1" viewBox="0 0 128 128" xml:space="preserve" xmlns="http://www.w3.org/2000/svg" xmlns:xlink="http://www.w3.org/1999/xlink"><g id="Слой_1"><g><path d="M115.7,92.7l-24.9,8.6l0,0c0.8-1.2,1.2-2.7,1.1-4.2c-0.3-3.5-3.4-6.1-6.9-6.1H67.2    c-6.9-10-25.7-10-25.7-10h-15v30.4l35.3,11.2c0,0,10.6,3.2,18.4,0c6.5-2.7,32.6-16.6,40.9-21.1c1.6-0.8,3.8-3.3,2.6-6.2l0,0    C122.7,92.9,120.7,91.3,115.7,92.7z" fill="#F4CAA6"/><path d="M85.3,99.4H64.2c-2.8,0-5,2.2-5,5v0h26c3.7,0,6.6-3,6.6-6.6c0-0.5-0.1-3.1-0.2-3.6    C91.1,97.1,88.5,99.4,85.3,99.4z" fill="#FDFDFE"/><path d="M32.5,112.5V81h-6v30.4l6,1.9C32.5,113,32.5,112.8,32.5,112.5z" fill="#FDFDFE"/><path d="M26.5,112.5V80.2c0-2.2-1.7-3.9-3.9-3.9H5c-0.4,0-0.7,0.1-1,0.2c0,0.2,0,0.4,0,0.5    c0,14.5,4.2,28,11.4,39.4h7.2C24.7,116.4,26.5,114.6,26.5,112.5z" fill="#EAEAEA"/><circle cx="66.9" cy="63" fill="#E3D34C" r="6.3"/><circle cx="73.2" cy="15.5" fill="#E3D34C" r="4.2"/><circle cx="89.4" cy="30.5" fill="#E3D34C" r="2.1"/><path d="M85.7,69.3L85.7,69.3l0-8.3c0-18.4,14.9-33.3,33.3-33.3h0v8.3C119,54.4,104.1,69.3,85.7,69.3z" fill="#A0C279"/><path d="M85.7,69.3L85.7,69.3c0,0,11.3-8.5,19.2-18.3c8.8-11,14.2-23.3,14.2-23.3h0v8.3    C119,54.4,104.1,69.3,85.7,69.3z" fill="#FDFDFE"/><path d="M85.7,20.7L85.7,20.7l0-3.3C85.7,10,91.6,4,99,4h0v3.3C99,14.7,93,20.7,85.7,20.7z" fill="#A0C279"/><path d="M85.7,20.7L85.7,20.7c0,0,7.5-5.1,13.3-16.7h0v3.3C99,14.7,93,20.7,85.7,20.7z" fill="#FDFDFE"/><path d="M69,47.6L69,47.6l0-5.8c0-12.9-10.4-23.3-23.3-23.3h0v5.8C45.7,37.2,56.1,47.6,69,47.6z" fill="#A0C279"/><path d="M69,47.6L69,47.6l0-5.8c0-12.9-10.4-23.3-23.3-23.3h0C45.7,18.4,62.3,32.6,69,47.6z" fill="#FDFDFE"/><path d="M119,90.7c-1.1,0-2.3,0.2-3.8,0.6l-21.9,7.6c0-0.1,0-0.1,0-0.2c0-0.2,0-0.3,0-0.5c0-0.1,0-0.3,0-0.4    c0,0,0-0.1,0-0.1c0-0.1,0-0.3,0-0.4c0-0.1,0-0.2,0-0.3c0,0,0-0.1,0-0.1c0,0,0-0.1,0-0.1c0-0.2-0.1-0.5-0.1-0.7c0,0,0,0,0-0.1    c0,0,0,0,0-0.1c-0.8-3.6-4.2-6.3-8.2-6.3H67.9c-7.6-9.9-25.6-10-26.4-10H27.9c-0.3-2.7-2.6-4.8-5.4-4.8H5c-0.6,0-1.2,0.1-1.7,0.4    c-0.5,0.3-0.8,0.8-0.8,1.3l0,0.2c0,0.1,0,0.2,0,0.3c0,14.2,4,28.1,11.6,40.2c0.3,0.4,0.8,0.7,1.3,0.7h7.2c2.7,0,4.9-1.9,5.3-4.5    L61.4,124c0.2,0.1,5,1.5,10.6,1.5h0c3.4,0,6.3-0.5,8.8-1.5c6.6-2.7,33.1-16.9,41-21.1c2.1-1.1,4.8-4.3,3.3-8.1    C123.9,92.1,121.9,90.7,119,90.7z M25,112.5c0,1.3-1.1,2.4-2.4,2.4h-6.4c-6.9-11.2-10.6-24-10.7-37.1h17.1c1.3,0,2.4,1.1,2.4,2.4    c0,0.2,0,0.3,0.1,0.4c0,0.1-0.1,0.3-0.1,0.4v30.4c0,0.2,0,0.4,0.1,0.5C25,112.1,25,112.3,25,112.5z M120.4,100.2    c-7.9,4.3-34.3,18.4-40.8,21c-2.1,0.9-4.7,1.3-7.6,1.3h0c-5.1,0-9.7-1.3-9.7-1.3L28,110.3V82.5h13.5c0.2,0,18,0.1,24.4,9.4    c0.3,0.4,0.7,0.7,1.2,0.7h17.9c2.8,0,5.1,2,5.3,4.6c0,0.1,0,0.1,0,0.2c0,0.2,0,0.3,0,0.5c0,0.2,0,0.4-0.1,0.7c0,0.1,0,0.2-0.1,0.3    c-0.1,0.2-0.1,0.4-0.2,0.6c0,0.1-0.1,0.2-0.1,0.3c-0.8,1.8-2.6,3.1-4.7,3.1h-26c-0.8,0-1.5,0.7-1.5,1.5s0.7,1.5,1.5,1.5h26    c2.6,0,5-1.3,6.5-3.2l24.4-8.5c1.1-0.3,2.1-0.5,2.9-0.5c1.7,0,2.6,0.6,3.3,2.2C123.1,97.9,121.4,99.7,120.4,100.2z" fill="#454B54"/><path d="M66.9,70.8c4.3,0,7.8-3.5,7.8-7.8s-3.5-7.8-7.8-7.8s-7.8,3.5-7.8,7.8S62.6,70.8,66.9,70.8z M66.9,58.3    c2.6,0,4.8,2.1,4.8,4.8s-2.1,4.8-4.8,4.8s-4.8-2.1-4.8-4.8S64.3,58.3,66.9,58.3z" fill="#454B54"/><path d="M78.8,15.5c0-3.1-2.5-5.7-5.7-5.7c-3.1,0-5.7,2.5-5.7,5.7c0,3.1,2.5,5.7,5.7,5.7    C76.3,21.2,78.8,18.6,78.8,15.5z M73.2,18.2c-1.5,0-2.7-1.2-2.7-2.7c0-1.5,1.2-2.7,2.7-2.7c1.5,0,2.7,1.2,2.7,2.7    C75.8,17,74.6,18.2,73.2,18.2z" fill="#454B54"/><path d="M85.8,30.5c0,2,1.6,3.6,3.6,3.6c2,0,3.6-1.6,3.6-3.6c0-2-1.6-3.6-3.6-3.6C87.4,26.9,85.8,28.5,85.8,30.5z     M90,30.5c0,0.3-0.3,0.6-0.6,0.6c-0.3,0-0.6-0.3-0.6-0.6c0-0.3,0.3-0.6,0.6-0.6C89.7,29.9,90,30.2,90,30.5z" fill="#454B54"/><path d="M85.7,70.8c19.2,0,34.8-15.6,34.8-34.8v-8.3c0-0.8-0.7-1.5-1.5-1.5c-19.2,0-34.8,15.6-34.8,34.8v8.3    C84.2,70.1,84.8,70.8,85.7,70.8z M87.2,60.9c0-17.1,13.5-31,30.3-31.8v6.8c0,17.1-13.5,31-30.3,31.8V60.9z" fill="#454B54"/><path d="M69,49.1c0.8,0,1.5-0.7,1.5-1.5v-5.8c0-13.7-11.1-24.8-24.8-24.8c-0.8,0-1.5,0.7-1.5,1.5v5.8    C44.2,38,55.3,49.1,69,49.1z M47.2,20c11.3,0.8,20.3,10.2,20.3,21.8v4.3c-11.3-0.8-20.3-10.2-20.3-21.8V20z" fill="#454B54"/><path d="M77.3,85.5c0.8,0,1.5-0.7,1.5-1.5V40.8c0-7,2.7-13.6,7.5-18.7c7.9-0.4,14.2-6.8,14.2-14.8V4    c0-0.8-0.7-1.5-1.5-1.5c-8.2,0-14.8,6.7-14.8,14.8v2.7c-5.4,5.6-8.3,12.9-8.3,20.7V84C75.8,84.8,76.5,85.5,77.3,85.5z M87.2,17.3    c0-6,4.5-11,10.3-11.7v1.7c0,6-4.5,11-10.3,11.7V17.3z" fill="#454B54"/></g></g></svg>