<?xml version="1.0" ?><!DOCTYPE svg  PUBLIC '-//W3C//DTD SVG 1.1//EN'  'http://www.w3.org/Graphics/SVG/1.1/DTD/svg11.dtd'><svg enable-background="new 0 0 256 256" height="256px" id="Layer_1" version="1.1" viewBox="0 0 256 256" width="256px" xml:space="preserve" xmlns="http://www.w3.org/2000/svg" xmlns:xlink="http://www.w3.org/1999/xlink"><g><g><path clip-rule="evenodd" d="M86.726,63.376c-5.964-13.666-5.035-28.108,4.687-40.072     c9.645-11.87,24.961-17.574,39.816-16.913l0.82,0.044c-0.812-2.382-1.065-3.168-0.745-5.531c0.185-1.373,9.425,7.352,9.979,5.924     c0.509-1.313,6.063-9.836,6.521-5.709c0.724,6.511,2.664,8.142,3.921,10.701l0.41,0.22c3.206-2.231,14.486-6.705,12.148-3.484     c-2.89,3.977-4.039,6.786-4.528,8.748c3.318,2.885,6.216,6.344,8.534,10.381c6.589,11.478,7.419,25.745,1.22,35.998     c0.678,0.391,1.201,1.048,1.4,1.869c0.782,3.224,0.607,6.185-0.244,8.955c-0.82,2.674-2.249,5.103-4.021,7.386     c-0.928,1.193-2.589,1.486-3.857,0.736c-7.019,17.364-19.366,32.993-35.047,32.993c-15.682,0-28.029-15.627-35.049-32.993     c-1.269,0.75-2.929,0.457-3.857-0.736c-1.774-2.283-3.201-4.712-4.022-7.386c-0.851-2.77-1.028-5.73-0.244-8.955     C84.836,64.446,85.694,63.637,86.726,63.376L86.726,63.376z M31.019,188.293c1.441-0.214,3.541-0.502,6.029-0.735     c2.489-0.231,5.368-0.406,8.363-0.39c1.41,0.007,3.075,0.692,4.025,1.851c0.948,1.16,0.353,2.565,0.943,4.725     c0.511,1.874,2.017,1.659,2.228,3.297c0.212,1.639-0.893,2.364-1.261,4.328c-0.328,1.759,1.252,2.184,1.331,3.648     c0.079,1.463-1.124,2.209-0.909,3.78c0.299,2.206,0.9,2.998,0.422,4.463c-0.479,1.464-1.742,2.708-3.099,3.123     c-3.541,1.082-9.204,2.797-14.971,3.24C14.282,221.147,13.442,190.91,31.019,188.293L31.019,188.293z M224.98,188.293     c-1.44-0.214-3.541-0.502-6.029-0.735c-2.488-0.231-5.368-0.406-8.362-0.39c-1.411,0.007-3.076,0.692-4.026,1.851     c-0.949,1.16-0.353,2.565-0.942,4.725c-0.512,1.874-2.017,1.659-2.229,3.297c-0.211,1.639,0.893,2.364,1.261,4.328     c0.328,1.759-1.251,2.184-1.331,3.648c-0.079,1.463,1.124,2.209,0.91,3.78c-0.3,2.206-0.901,2.998-0.422,4.463     c0.478,1.464,1.741,2.708,3.098,3.123c3.541,1.082,9.204,2.797,14.971,3.24C241.718,221.147,242.559,190.91,224.98,188.293     L224.98,188.293z M61.626,143.871c0.689-2.373,1.402-4.746,2.137-7.119c3.13-10.08,30.126-16.267,40.764-19.285l-2.377,23.762     l25.852-9.722l25.854,9.722l-2.377-23.762c10.637,3.019,37.635,9.205,40.763,19.285c0.735,2.369,1.448,4.739,2.134,7.108     l-59.994,12.97c-2.443,0.528-4.627,1.655-6.415,3.207c-1.785-1.546-3.964-2.668-6.396-3.195L61.626,143.871L61.626,143.871z      M161.269,59.415c-6.947-5.287-10.608-14.414-13.881-24.515c-5.766,11.036-16.967,18.999-29.404,22.712     c3.266-5.931,5.352-13.735,5.642-17.839c-8.797,12.764-17.338,19.515-29.172,19.884c3.244,19.244,16.179,48.204,33.392,47.963     C145.06,107.379,158.299,78.497,161.269,59.415z" fill="#3B4652" fill-rule="evenodd"/><path clip-rule="evenodd" d="M215.428,234.427c-0.047,2.083-1.557,3.915-3.688,4.287     l-72.199,12.692c-2.059,3.062-6.811,4.594-11.563,4.594c-4.752,0-9.375-1.532-11.435-4.594L44.48,238.713v-0.005     c-2-0.344-3.666-1.999-3.805-4.088l-0.626-5.664c4.072-0.696,8.009-1.79,11.997-3.009c4.541-1.387,8.201-5.087,9.668-9.585     c1.061-3.248,0.701-4.709,0.269-7.089c0.528-1.509,0.785-2.973,0.687-4.798c-0.064-1.195-0.279-2.249-0.624-3.235     c0.551-1.661,0.771-3.253,0.484-5.478c-0.317-2.458-1.213-4.386-2.63-6.077c-0.291-2.619-0.648-4.468-2.723-7.002     c-2.817-3.439-7.279-5.492-11.712-5.516c-3.079-0.016-6.163,0.141-9.229,0.423c-0.387-5.493-0.899-12.823-1.584-22.749     c-0.228-3.241,1.704-6.206,5.329-5.424l79.476,17.198c2.023,0.435,3.528,2.246,3.504,4.395     c-0.022,1.698,9.404,1.969,10.021-0.016c-0.018-2.069,1.414-3.938,3.516-4.391l79.48-17.182c2.863-0.618,5.579,1.684,5.381,4.646     c-0.714,10.335-1.241,17.895-1.637,23.518c-3.052-0.28-6.121-0.434-9.184-0.418c-4.434,0.023-8.895,2.076-11.712,5.515     c-2.076,2.535-2.432,4.384-2.723,7.003c-1.416,1.69-2.312,3.619-2.629,6.077c-0.287,2.225-0.067,3.817,0.484,5.478     c-0.346,0.987-0.558,2.041-0.622,3.235c-0.1,1.825,0.162,3.289,0.69,4.798c-0.433,2.379-0.783,3.841,0.276,7.088     c1.468,4.499,5.145,8.198,9.685,9.585c3.976,1.215,7.932,2.306,11.989,3.002L215.428,234.427L215.428,234.427z M131.501,184.091     c-1,0.201-2.676,0.294-4.014,0.294c-1.322,0.001-1.988-0.097-3.988-0.303v57.096l1.963,2.549     c0.705,0.199,1.831,0.273,2.389,0.273c0.559,0,1.371-0.074,2.076-0.273l1.574-2.618V184.091z" fill="#2B79C2" fill-rule="evenodd"/></g></g></svg>