<?xml version="1.0" ?><!DOCTYPE svg  PUBLIC '-//W3C//DTD SVG 1.1//EN'  'http://www.w3.org/Graphics/SVG/1.1/DTD/svg11.dtd'><svg enable-background="new 0 0 512 512" height="512px" id="Calque_1" version="1.1" viewBox="0 0 512 512" width="512px" xml:space="preserve" xmlns="http://www.w3.org/2000/svg" xmlns:xlink="http://www.w3.org/1999/xlink"><g><path d="M479.65,371.673c-0.041-0.145-0.085-0.302-0.132-0.461c-0.042-0.146-0.087-0.296-0.133-0.441   c-23.741-82.54-67.021-143.313-128.639-180.631c-42.555-25.773-86.344-35.515-120.286-38.694v-17.948   c0-9.257-4.871-17.603-12.342-21.145c-7.473-3.543-16.068-1.583-21.787,4.961l-77.169,88.345c-7.81,8.938-7.81,23.429,0,32.367   l41.087,47.039c0.111,0.13,0.228,0.258,0.344,0.385l35.737,40.911c3.823,4.38,8.938,6.705,14.141,6.705   c2.575,0,5.173-0.57,7.646-1.743c7.47-3.543,12.341-11.889,12.341-21.145v-16.208c91.395,7.245,143.635,31.076,171.813,50.519   c30.735,21.203,39.243,41.307,39.738,42.527c0.039,0.109,0.088,0.216,0.128,0.324c0.143,0.392,0.292,0.772,0.451,1.148   c0.041,0.095,0.082,0.188,0.124,0.281c3.406,7.79,10.38,12.624,17.844,12.623c1.977,0,3.985-0.338,5.97-1.048   C477.07,396.575,482.942,383.737,479.65,371.673z M193.524,185.26c0.015,0.022,0.027,0.046,0.04,0.067   c0.197,0.356,0.402,0.704,0.614,1.046c0.061,0.1,0.125,0.192,0.188,0.289c0.161,0.252,0.326,0.501,0.497,0.745   c0.082,0.118,0.166,0.233,0.25,0.349c0.171,0.231,0.344,0.458,0.52,0.684c0.078,0.099,0.154,0.198,0.233,0.295   c0.255,0.312,0.515,0.618,0.784,0.914c0.021,0.021,0.041,0.042,0.063,0.063c0.253,0.275,0.514,0.542,0.78,0.803   c0.084,0.083,0.17,0.163,0.256,0.242c0.214,0.203,0.432,0.4,0.651,0.594c0.091,0.077,0.179,0.153,0.27,0.229   c0.263,0.221,0.531,0.436,0.804,0.642c0.044,0.031,0.086,0.066,0.13,0.102c0.32,0.238,0.647,0.464,0.98,0.682   c0.077,0.052,0.155,0.098,0.232,0.146c0.259,0.163,0.52,0.32,0.782,0.47c0.105,0.062,0.211,0.119,0.318,0.176   c0.259,0.142,0.521,0.274,0.786,0.402c0.093,0.045,0.185,0.092,0.277,0.136c0.354,0.164,0.711,0.317,1.074,0.458   c0.063,0.023,0.124,0.043,0.188,0.066c0.302,0.113,0.606,0.219,0.917,0.314c0.126,0.04,0.253,0.076,0.381,0.113   c0.255,0.074,0.512,0.144,0.771,0.205c0.133,0.032,0.269,0.065,0.401,0.095c0.306,0.066,0.614,0.124,0.925,0.176   c0.079,0.013,0.157,0.028,0.237,0.042c0.383,0.057,0.771,0.099,1.161,0.131c0.12,0.01,0.241,0.014,0.363,0.021   c0.182,0.011,0.358,0.027,0.539,0.032c50.197,1.526,129.823,17.34,185.771,93.074c-47.271-24.347-109.029-38.499-184.198-42.145   c-0.011,0-0.021-0.001-0.032-0.001c-0.057-0.003-0.111-0.007-0.169-0.01c-0.16-0.008-0.315-0.006-0.476-0.009   c-0.123-0.003-0.243-0.011-0.366-0.011c-0.019,0-0.037,0.002-0.055,0.002c-0.435,0-0.862,0.018-1.288,0.049   c-0.024,0.003-0.049,0.006-0.073,0.008c-0.399,0.031-0.793,0.078-1.185,0.137c-0.065,0.01-0.132,0.021-0.194,0.029   c-0.398,0.063-0.793,0.14-1.185,0.229c-0.014,0.004-0.024,0.007-0.036,0.01c-0.427,0.1-0.847,0.214-1.262,0.344   c-0.014,0.005-0.025,0.009-0.041,0.014c-0.375,0.118-0.744,0.251-1.108,0.396c-0.071,0.025-0.143,0.055-0.211,0.083   c-0.346,0.139-0.687,0.287-1.021,0.445c-0.037,0.02-0.074,0.033-0.109,0.054c-0.377,0.182-0.748,0.377-1.112,0.584   c-0.042,0.021-0.082,0.05-0.123,0.071c-0.309,0.181-0.612,0.366-0.911,0.563c-0.084,0.056-0.169,0.112-0.253,0.169   c-0.279,0.188-0.555,0.387-0.826,0.592c-0.058,0.044-0.117,0.085-0.174,0.129c-0.326,0.253-0.646,0.517-0.958,0.787   c-0.048,0.042-0.093,0.086-0.14,0.128c-0.261,0.231-0.516,0.473-0.765,0.716c-0.079,0.078-0.155,0.156-0.233,0.235   c-0.234,0.238-0.464,0.482-0.688,0.733c-0.056,0.062-0.113,0.122-0.167,0.185c-0.277,0.317-0.548,0.646-0.809,0.979   c-0.032,0.041-0.063,0.084-0.094,0.125c-0.225,0.292-0.44,0.592-0.652,0.896c-0.063,0.092-0.126,0.187-0.188,0.277   c-0.188,0.281-0.372,0.567-0.549,0.859c-0.048,0.078-0.098,0.156-0.145,0.236c-0.222,0.371-0.434,0.749-0.635,1.137   c-0.004,0.01-0.009,0.018-0.013,0.023l-4.73-5.418c-0.113-0.13-0.229-0.259-0.346-0.385l-26.613-30.472L193.524,185.26z" fill="#63CBE5"/></g><g><path d="M154.247,337.5c-1.526,0-3.033-0.696-4.015-2.015l-81.872-110c-1.31-1.76-1.319-4.167-0.024-5.938   l81.871-111.893c1.63-2.229,4.759-2.712,6.988-1.083c2.229,1.63,2.713,4.759,1.083,6.988L78.586,222.474l79.668,107.04   c1.648,2.215,1.189,5.348-1.026,6.996C156.332,337.178,155.285,337.5,154.247,337.5z" fill="#63CBE5"/></g><g><path d="M113.311,337.5c-1.526,0-3.033-0.696-4.015-2.015l-81.872-110c-1.31-1.76-1.319-4.167-0.024-5.938   l81.871-111.893c1.63-2.229,4.759-2.712,6.988-1.083c2.229,1.63,2.713,4.759,1.083,6.988L37.65,222.474l79.668,107.04   c1.648,2.215,1.189,5.348-1.026,6.996C115.396,337.178,114.349,337.5,113.311,337.5z" fill="#63CBE5"/></g></svg>