<?xml version="1.0" ?><!DOCTYPE svg  PUBLIC '-//W3C//DTD SVG 1.1//EN'  'http://www.w3.org/Graphics/SVG/1.1/DTD/svg11.dtd'><svg enable-background="new -0.5 -0.5 66 66" height="66px" overflow="visible" version="1.1" viewBox="-0.5 -0.5 66 66" width="66px" xml:space="preserve" xmlns="http://www.w3.org/2000/svg" xmlns:xlink="http://www.w3.org/1999/xlink"><defs/><path d="M43.5,14.5c-3.866,0-7,3.134-7,7s3.134,7,7,7s7-3.134,7-7S47.366,14.5,43.5,14.5z M43.5,24.611  c-1.715,0-3.111-1.396-3.111-3.111s1.396-3.111,3.111-3.111s3.111,1.396,3.111,3.111S45.215,24.611,43.5,24.611z" fill="#15AE67"/><path d="M21.5,25.5c-3.866,0-7,3.134-7,7s3.134,7,7,7s7-3.134,7-7S25.366,25.5,21.5,25.5z M21.5,35.611  c-1.715,0-3.111-1.396-3.111-3.111s1.396-3.111,3.111-3.111s3.111,1.396,3.111,3.111S23.215,35.611,21.5,35.611z" fill="#15AE67"/><path d="M43.5,36.5c-3.866,0-7,3.134-7,7s3.134,7,7,7s7-3.134,7-7S47.366,36.5,43.5,36.5z M43.5,46.611  c-1.715,0-3.111-1.396-3.111-3.111s1.396-3.111,3.111-3.111s3.111,1.396,3.111,3.111S45.215,46.611,43.5,46.611z" fill="#15AE67"/><path d="M39.429,39.654L27.5,32.768c-0.957-0.552-2.18-0.224-2.732,0.732s-0.225,2.18,0.732,2.731l13.856,8  c0.023,0.014,0.048,0.02,0.072,0.032V39.654z" fill="#15AE67"/><path d="M39.429,20.734c-0.023,0.013-0.049,0.019-0.072,0.033l-13.856,8c-0.956,0.552-1.284,1.776-0.731,2.732  c0.552,0.957,1.775,1.284,2.731,0.732l11.929-6.887V20.734z" fill="#15AE67"/></svg>