<?xml version="1.0" ?><svg id="Layer_1" style="enable-background:new 0 0 250 200;" version="1.1" viewBox="0 0 250 200" xml:space="preserve" xmlns="http://www.w3.org/2000/svg" xmlns:xlink="http://www.w3.org/1999/xlink"><style type="text/css">
	.st0{fill:#3E4846;}
	.st1{fill:#A5DADC;}
	.st2{fill:#E97924;}
	.st3{fill:#EDDE44;}
</style><g><g><g><path class="st0" d="M42.6,160.8H29.1c-1.4,0-2.5-1.1-2.5-2.5s1.1-2.5,2.5-2.5h13.5c1.4,0,2.5,1.1,2.5,2.5S44,160.8,42.6,160.8z"/></g><g><path class="st0" d="M222.6,160.8h-171c-1.4,0-2.5-1.1-2.5-2.5s1.1-2.5,2.5-2.5h171c1.4,0,2.5,1.1,2.5,2.5S224,160.8,222.6,160.8     z"/></g></g><g><g><circle class="st1" cx="185.9" cy="123.2" r="20"/></g><g><path class="st0" d="M185.9,145.7c-12.4,0-22.5-10.1-22.5-22.5s10.1-22.5,22.5-22.5c12.4,0,22.5,10.1,22.5,22.5     S198.3,145.7,185.9,145.7z M185.9,105.7c-9.6,0-17.5,7.8-17.5,17.5s7.8,17.5,17.5,17.5c9.6,0,17.5-7.8,17.5-17.5     S195.5,105.7,185.9,105.7z"/></g><g><path class="st0" d="M185.9,132.3c-1,0-2.1-0.1-3.1-0.4c-5.9-1.7-9.3-7.9-7.6-13.8c0.8-2.9,2.7-5.2,5.3-6.7     c2.6-1.4,5.6-1.8,8.5-0.9l0,0c5.9,1.7,9.3,7.9,7.6,13.8C195.2,129.1,190.7,132.3,185.9,132.3z M185.9,115c-1,0-2,0.3-3,0.8     c-1.4,0.8-2.5,2.1-3,3.7c-0.9,3.3,0.9,6.7,4.2,7.7c3.3,0.9,6.7-0.9,7.7-4.2c0.9-3.3-0.9-6.7-4.2-7.7l0,0     C187,115.1,186.4,115,185.9,115z"/></g><g><path class="st0" d="M200.3,139c-1.4,0-2.5-1.1-2.5-2.5c0-1.5-4.5-4.2-11.9-4.2S174,135,174,136.5c0,1.4-1.1,2.5-2.5,2.5     s-2.5-1.1-2.5-2.5c0-5.2,7.3-9.2,16.9-9.2s16.9,3.9,16.9,9.2C202.8,137.9,201.7,139,200.3,139z"/></g></g><g><g><circle class="st2" cx="185.9" cy="63.2" r="20"/></g><g><path class="st0" d="M185.9,85.7c-12.4,0-22.5-10.1-22.5-22.5s10.1-22.5,22.5-22.5c12.4,0,22.5,10.1,22.5,22.5     S198.3,85.7,185.9,85.7z M185.9,45.7c-9.6,0-17.5,7.8-17.5,17.5s7.8,17.5,17.5,17.5c9.6,0,17.5-7.8,17.5-17.5     S195.5,45.7,185.9,45.7z"/></g><g><path class="st0" d="M185.9,72.3c-1,0-2.1-0.1-3.1-0.4c-5.9-1.7-9.3-7.9-7.6-13.8c0.8-2.9,2.7-5.2,5.3-6.7s5.6-1.8,8.5-0.9l0,0     c5.9,1.7,9.3,7.9,7.6,13.8c-0.8,2.9-2.7,5.2-5.3,6.7C189.6,71.9,187.7,72.3,185.9,72.3z M185.9,55c-1,0-2,0.3-3,0.8     c-1.4,0.8-2.5,2.1-3,3.7c-0.9,3.3,0.9,6.7,4.2,7.7c1.6,0.5,3.3,0.3,4.7-0.5c1.4-0.8,2.5-2.1,3-3.7c0.9-3.3-0.9-6.7-4.2-7.7l0,0     C187,55.1,186.4,55,185.9,55z"/></g><g><path class="st0" d="M200.3,79c-1.4,0-2.5-1.1-2.5-2.5c0-1.5-4.5-4.2-11.9-4.2S174,75,174,76.5c0,1.4-1.1,2.5-2.5,2.5     s-2.5-1.1-2.5-2.5c0-5.2,7.3-9.2,16.9-9.2s16.9,3.9,16.9,9.2C202.8,77.9,201.7,79,200.3,79z"/></g></g><g><g><circle class="st2" cx="65.9" cy="123.2" r="20"/></g><g><path class="st0" d="M65.9,145.7c-12.4,0-22.5-10.1-22.5-22.5s10.1-22.5,22.5-22.5s22.5,10.1,22.5,22.5S78.3,145.7,65.9,145.7z      M65.9,105.7c-9.6,0-17.5,7.8-17.5,17.5s7.8,17.5,17.5,17.5s17.5-7.8,17.5-17.5S75.5,105.7,65.9,105.7z"/></g><g><path class="st0" d="M65.9,132.3c-1,0-2.1-0.1-3.1-0.4c-5.9-1.7-9.3-7.9-7.6-13.8c1.7-5.9,7.9-9.3,13.8-7.6c0,0,0,0,0,0     c5.9,1.7,9.3,7.9,7.6,13.8C75.2,129.1,70.7,132.3,65.9,132.3z M65.9,115c-2.7,0-5.2,1.8-5.9,4.5c-0.9,3.3,0.9,6.7,4.2,7.7     c3.3,0.9,6.7-0.9,7.7-4.2c0.9-3.3-0.9-6.7-4.2-7.7l0,0C67,115.1,66.4,115,65.9,115z"/></g><g><path class="st0" d="M80.3,139c-1.4,0-2.5-1.1-2.5-2.5c0-1.5-4.5-4.2-11.9-4.2c-7.4,0-11.9,2.7-11.9,4.2c0,1.4-1.1,2.5-2.5,2.5     s-2.5-1.1-2.5-2.5c0-5.2,7.3-9.2,16.9-9.2s16.9,3.9,16.9,9.2C82.8,137.9,81.7,139,80.3,139z"/></g></g><g><g><circle class="st1" cx="65.9" cy="63.2" r="20"/></g><g><path class="st0" d="M65.9,85.7c-12.4,0-22.5-10.1-22.5-22.5s10.1-22.5,22.5-22.5s22.5,10.1,22.5,22.5S78.3,85.7,65.9,85.7z      M65.9,45.7c-9.6,0-17.5,7.8-17.5,17.5s7.8,17.5,17.5,17.5s17.5-7.8,17.5-17.5S75.5,45.7,65.9,45.7z"/></g><g><path class="st0" d="M65.9,72.3c-1,0-2.1-0.1-3.1-0.4c-5.9-1.7-9.3-7.9-7.6-13.8c1.7-5.9,7.9-9.3,13.8-7.6l0,0     c5.9,1.7,9.3,7.9,7.6,13.8c-0.8,2.9-2.7,5.2-5.3,6.7C69.6,71.9,67.7,72.3,65.9,72.3z M65.9,55c-2.7,0-5.2,1.8-5.9,4.5     c-0.9,3.3,0.9,6.7,4.2,7.7c1.6,0.5,3.3,0.3,4.7-0.5c1.4-0.8,2.5-2.1,3-3.7c0.9-3.3-0.9-6.7-4.2-7.7l0,0C67,55.1,66.4,55,65.9,55z     "/></g><g><path class="st0" d="M80.3,79c-1.4,0-2.5-1.1-2.5-2.5c0-1.5-4.5-4.2-11.9-4.2C58.5,72.3,54,75,54,76.5c0,1.4-1.1,2.5-2.5,2.5     S49,77.9,49,76.5c0-5.2,7.3-9.2,16.9-9.2s16.9,3.9,16.9,9.2C82.8,77.9,81.7,79,80.3,79z"/></g></g><g><g><circle class="st3" cx="125.9" cy="103.2" r="20"/></g><g><path class="st0" d="M125.9,125.7c-12.4,0-22.5-10.1-22.5-22.5c0-12.4,10.1-22.5,22.5-22.5c12.4,0,22.5,10.1,22.5,22.5     C148.3,115.6,138.3,125.7,125.9,125.7z M125.9,85.7c-9.6,0-17.5,7.8-17.5,17.5c0,9.6,7.8,17.5,17.5,17.5     c9.6,0,17.5-7.8,17.5-17.5C143.3,93.6,135.5,85.7,125.9,85.7z"/></g><g><path class="st0" d="M125.9,112.3c-1,0-2.1-0.1-3.1-0.4c-5.9-1.7-9.3-7.9-7.6-13.8c0.8-2.9,2.7-5.2,5.3-6.7     c2.6-1.4,5.6-1.8,8.5-0.9l0,0c5.9,1.7,9.3,7.9,7.6,13.8C135.2,109.1,130.7,112.3,125.9,112.3z M125.9,95c-1,0-2,0.3-3,0.8     c-1.4,0.8-2.5,2.1-3,3.7c-0.9,3.3,0.9,6.7,4.2,7.7c3.3,0.9,6.7-0.9,7.7-4.2c0.9-3.3-0.9-6.7-4.2-7.7l0,0     C127,95.1,126.4,95,125.9,95z"/></g><g><path class="st0" d="M140.3,119c-1.4,0-2.5-1.1-2.5-2.5c0-1.5-4.5-4.2-11.9-4.2S114,115,114,116.5c0,1.4-1.1,2.5-2.5,2.5     s-2.5-1.1-2.5-2.5c0-5.2,7.3-9.2,16.9-9.2c9.6,0,16.9,3.9,16.9,9.2C142.8,117.9,141.7,119,140.3,119z"/></g></g><g><path class="st0" d="M110.4,93c-0.5,0-0.9-0.1-1.3-0.4L81.8,75.3c-1.2-0.7-1.5-2.3-0.8-3.5c0.7-1.2,2.3-1.5,3.5-0.8l27.3,17.4    c1.2,0.7,1.5,2.3,0.8,3.5C112.1,92.6,111.3,93,110.4,93z"/></g><g><path class="st0" d="M128.5,85.9c-0.1,0-0.2,0-0.3,0c-1.4-0.2-2.3-1.4-2.1-2.8l4.3-32.1c0.2-1.3,1.4-2.2,2.6-2.2l35.4,2.4    c1.4,0.1,2.4,1.3,2.3,2.7c-0.1,1.4-1.3,2.4-2.7,2.3L135,54l-4,29.8C130.8,85,129.7,85.9,128.5,85.9z"/></g><g><path class="st0" d="M145.8,105.7c-0.8,0-1.6-0.4-2.1-1.2c-0.7-1.2-0.4-2.7,0.8-3.4l14-8.9c1.2-0.7,2.7-0.4,3.4,0.8    c0.7,1.2,0.4,2.7-0.8,3.5l-14,8.9C146.8,105.6,146.3,105.7,145.8,105.7z"/></g><g><path class="st0" d="M165.9,125.7c-0.2,0-0.5,0-0.7-0.1l-23.7-6.7c-1.3-0.4-2.1-1.8-1.7-3.1c0.4-1.3,1.8-2.1,3.1-1.7l23.7,6.7    c1.3,0.4,2.1,1.8,1.7,3.1C168,125,167,125.7,165.9,125.7z"/></g><g><path class="st0" d="M85.8,123.7c-1,0-2-0.6-2.3-1.6c-0.5-1.3,0.2-2.7,1.5-3.2l21.4-8c1.3-0.5,2.7,0.2,3.2,1.5    c0.5,1.3-0.2,2.7-1.5,3.2l-21.4,8C86.4,123.6,86.1,123.7,85.8,123.7z"/></g><g><path class="st0" d="M110.4,144.2c-0.3,0-0.7-0.1-1-0.2l-25.7-11.8c-1.3-0.6-1.8-2.1-1.2-3.3c0.6-1.3,2.1-1.8,3.3-1.2l25.7,11.8    c1.3,0.6,1.8,2.1,1.2,3.3C112.3,143.6,111.4,144.2,110.4,144.2z"/></g><g><circle class="st0" cx="133.5" cy="50.4" r="8.7"/></g><g><circle class="st0" cx="162.6" cy="92.5" r="8.7"/></g><g><circle class="st0" cx="111.5" cy="140.8" r="8.7"/></g><g><path class="st0" d="M145.8,150.2c-1.8,0-3.5-0.4-5.1-1.3c-2.6-1.4-4.5-3.7-5.4-6.5c-0.9-2.8-0.6-5.8,0.8-8.4    c1.4-2.6,3.7-4.5,6.5-5.4c2.8-0.9,5.8-0.6,8.4,0.8c2.6,1.4,4.5,3.7,5.4,6.5c0.9,2.8,0.6,5.8-0.8,8.4s-3.7,4.5-6.5,5.4    C148,150,146.9,150.2,145.8,150.2z M145.8,133.2c-0.6,0-1.2,0.1-1.8,0.3l0,0c-1.5,0.5-2.8,1.5-3.5,2.9c-0.7,1.4-0.9,3-0.4,4.6    s1.5,2.8,2.9,3.5c1.4,0.7,3,0.9,4.6,0.4c1.5-0.5,2.8-1.5,3.5-2.9c0.7-1.4,0.9-3,0.4-4.6s-1.5-2.8-2.9-3.5    C147.8,133.4,146.8,133.2,145.8,133.2z M143.3,131.1L143.3,131.1L143.3,131.1z"/></g><g><path class="st0" d="M102.7,65.7c-4.4,0-8.1-3.6-8.1-8.1c0-4.4,3.6-8.1,8.1-8.1c4.4,0,8.1,3.6,8.1,8.1    C110.8,62.1,107.2,65.7,102.7,65.7z M102.7,54.6c-1.7,0-3.1,1.4-3.1,3.1c0,1.7,1.4,3.1,3.1,3.1c1.7,0,3.1-1.4,3.1-3.1    C105.8,56,104.4,54.6,102.7,54.6z"/></g><g><path class="st0" d="M209.8,100.6c-4.4,0-8.1-3.6-8.1-8.1s3.6-8.1,8.1-8.1s8.1,3.6,8.1,8.1S214.2,100.6,209.8,100.6z M209.8,89.5    c-1.7,0-3.1,1.4-3.1,3.1s1.4,3.1,3.1,3.1s3.1-1.4,3.1-3.1S211.5,89.5,209.8,89.5z"/></g><g><path class="st0" d="M35.9,103.5c-1.8,0-3.5-0.4-5.1-1.3c-2.6-1.4-4.5-3.7-5.4-6.5c-1.8-5.8,1.5-12,7.3-13.7l0,0    c2.8-0.9,5.8-0.6,8.4,0.8c2.6,1.4,4.5,3.7,5.4,6.5c0.9,2.8,0.6,5.8-0.8,8.4c-1.4,2.6-3.7,4.5-6.5,5.4    C38,103.4,36.9,103.5,35.9,103.5z M34.1,86.8c-3.2,1-4.9,4.3-4,7.5c0.5,1.5,1.5,2.8,2.9,3.5c1.4,0.7,3,0.9,4.6,0.4    s2.8-1.5,3.5-2.9s0.9-3,0.4-4.6c-0.5-1.5-1.5-2.8-2.9-3.5C37.3,86.5,35.6,86.3,34.1,86.8L34.1,86.8z"/></g></g></svg>