<?xml version="1.0" ?><!DOCTYPE svg  PUBLIC '-//W3C//DTD SVG 1.1//EN'  'http://www.w3.org/Graphics/SVG/1.1/DTD/svg11.dtd'><svg enable-background="new 0 0 128 128" id="Layer_1" version="1.1" viewBox="0 0 128 128" xml:space="preserve" xmlns="http://www.w3.org/2000/svg" xmlns:xlink="http://www.w3.org/1999/xlink"><polygon fill="#FEE789" points="62.9,17.8 18.6,50.2 64,79.6 109.5,50.2 "/><polygon fill="#FFF2BC" points="109.5,50.2 64,79.6 18.6,50.2 62.9,17.8 18,50.6 18,111 110,111 110,50.6 "/><polygon fill="none" points="  110,50.6 62.9,17.8 18,50.6 18,111 110,111 " stroke="#4A7DA7" stroke-linecap="round" stroke-linejoin="round" stroke-miterlimit="10" stroke-width="4"/><path d="M94,60.4V29.3c0-1.8-2-3.3-3.8-3.3H36.1c-1.8,0-3.1,1.4-3.1,3.3v31.1l31.3,19.2L94,60.4z" fill="#FFFFFF"/><line fill="none" stroke="#4A7DA7" stroke-linecap="round" stroke-miterlimit="10" stroke-width="2" x1="109.9" x2="30.8" y1="50.6" y2="100.6"/><line fill="none" stroke="#4A7DA7" stroke-linecap="round" stroke-miterlimit="10" stroke-width="2" x1="64" x2="18.1" y1="79.6" y2="50.6"/><path d="M94,59V29.3  c0-1.8-2-3.3-3.8-3.3H36.1c-1.8,0-3.1,1.4-3.1,3.3V59" fill="none" stroke="#4A7DA7" stroke-linecap="round" stroke-miterlimit="10" stroke-width="2"/><path d="M77.4,48.4c0,1.6-0.3,3.1-0.8,4.5s-1.3,2.5-2.3,3.3c-1,0.8-2.1,1.2-3.4,1.2c-0.9,0-1.7-0.2-2.4-0.5  c-0.7-0.4-1.3-0.9-1.7-1.5h-0.3c-1.2,1.4-2.7,2-4.5,2c-2.1,0-3.7-0.6-4.8-1.8c-1.1-1.2-1.7-2.9-1.7-5.1c0-1.6,0.4-3,1.1-4.3  c0.7-1.2,1.7-2.2,3.1-2.9s2.9-1,4.6-1c0.9,0,1.9,0.1,3.1,0.3s2.1,0.4,3.1,0.8l-0.4,7.2l0,1.6c0,1,0.3,1.5,0.8,1.5  c0.6,0,1.1-0.5,1.4-1.5c0.4-1,0.6-2.2,0.6-3.8c0-2.7-0.8-4.8-2.3-6.3s-3.7-2.2-6.6-2.2c-2.2,0-4.1,0.5-5.7,1.4  c-1.6,0.9-2.8,2.2-3.7,3.9c-0.8,1.7-1.3,3.7-1.3,5.9c0,2.9,0.8,5.2,2.4,6.7c1.6,1.6,3.9,2.4,6.9,2.4c1.3,0,2.8-0.1,4.3-0.4  c1.5-0.3,3-0.7,4.5-1.2v3.9c-2.6,1.1-5.4,1.6-8.6,1.6c-4.4,0-7.9-1.2-10.4-3.5c-2.5-2.3-3.8-5.5-3.8-9.6c0-2.9,0.7-5.5,2-7.8  c1.3-2.3,3.1-4.1,5.4-5.3c2.3-1.2,4.9-1.9,7.8-1.9c2.7,0,5,0.5,7.1,1.5c2,1,3.6,2.5,4.7,4.3C76.8,43.7,77.4,45.9,77.4,48.4z   M60.3,50.3c0,1.1,0.2,2,0.6,2.5c0.4,0.5,1,0.8,1.7,0.8c0.9,0,1.5-0.4,1.9-1.1c0.4-0.7,0.7-2,0.8-3.8l0.2-2.7  C65.1,46,64.7,46,64.4,46c-1.2,0-2.2,0.4-2.9,1.1C60.7,47.9,60.3,49,60.3,50.3z" fill="#F3B0AE"/></svg>